{
	"asset":{
		"generator":"Khronos glTF Blender I/O v4.5.51",
		"version":"2.0"
	},
	"scene":0,
	"scenes":[
		{
			"name":"Scene",
			"nodes":[
				1
			]
		}
	],
	"nodes":[
		{
			"mesh":0,
			"name":"BambooMesh"
		},
		{
			"children":[
				0
			],
			"name":"Bamboo"
		}
	],
	"materials":[
		{
			"doubleSided":true,
			"name":"bamboo",
			"normalTexture":{
				"index":0
			},
			"pbrMetallicRoughness":{
				"baseColorTexture":{
					"index":1
				},
				"metallicFactor":0,
				"roughnessFactor":0.6000000238418579
			}
		},
		{
			"doubleSided":true,
			"name":"bamboo_ccd8b2",
			"normalTexture":{
				"index":2
			},
			"pbrMetallicRoughness":{
				"baseColorFactor":[
					0.6038273572921753,
					0.6920710802078247,
					0.4479884207248688,
					1
				],
				"baseColorTexture":{
					"index":3
				},
				"metallicFactor":0,
				"roughnessFactor":0.6000000238418579
			}
		},
		{
			"doubleSided":true,
			"name":"leaves_f2118d8",
			"normalTexture":{
				"index":4
			},
			"pbrMetallicRoughness":{
				"baseColorFactor":[
					0.8900054097175598,
					1,
					0.6920710802078247,
					1
				],
				"baseColorTexture":{
					"index":5
				},
				"metallicFactor":0,
				"roughnessFactor":0.8999999761581421
			}
		}
	],
	"meshes":[
		{
			"name":"BambooMesh",
			"primitives":[
				{
					"attributes":{
						"POSITION":0,
						"NORMAL":1,
						"TEXCOORD_0":2
					},
					"indices":3,
					"material":0
				},
				{
					"attributes":{
						"POSITION":4,
						"NORMAL":5,
						"TEXCOORD_0":6
					},
					"indices":7,
					"material":1
				},
				{
					"attributes":{
						"POSITION":8,
						"NORMAL":9,
						"TEXCOORD_0":10
					},
					"indices":11,
					"material":2
				}
			]
		}
	],
	"textures":[
		{
			"sampler":0,
			"source":0
		},
		{
			"sampler":0,
			"source":1
		},
		{
			"sampler":0,
			"source":0
		},
		{
			"sampler":0,
			"source":1
		},
		{
			"sampler":0,
			"source":2
		},
		{
			"sampler":0,
			"source":3
		}
	],
	"images":[
		{
			"mimeType":"image/png",
			"name":"bamboo_normal.png",
			"uri":"../textures/bamboo_normal.png"
		},
		{
			"mimeType":"image/png",
			"name":"bamboo_albedo.png",
			"uri":"../textures/bamboo_albedo.png"
		},
		{
			"mimeType":"image/png",
			"name":"leaves_normal.png",
			"uri":"../textures/leaves_normal.png"
		},
		{
			"mimeType":"image/png",
			"name":"leaves_albedo.png",
			"uri":"../textures/leaves_albedo.png"
		}
	],
	"accessors":[
		{
			"bufferView":0,
			"componentType":5126,
			"count":2352,
			"max":[
				0.40898552536964417,
				6.781552314758301,
				0.16417130827903748
			],
			"min":[
				-0.43429213762283325,
				0.012254059314727783,
				-0.7429915070533752
			],
			"type":"VEC3"
		},
		{
			"bufferView":1,
			"componentType":5126,
			"count":2352,
			"type":"VEC3"
		},
		{
			"bufferView":2,
			"componentType":5126,
			"count":2352,
			"type":"VEC2"
		},
		{
			"bufferView":3,
			"componentType":5123,
			"count":4116,
			"type":"SCALAR"
		},
		{
			"bufferView":4,
			"componentType":5126,
			"count":2352,
			"max":[
				0.42196735739707947,
				6.819420337677002,
				0.17806091904640198
			],
			"min":[
				-0.4466724097728729,
				0.8232172131538391,
				-0.7540474534034729
			],
			"type":"VEC3"
		},
		{
			"bufferView":5,
			"componentType":5126,
			"count":2352,
			"type":"VEC3"
		},
		{
			"bufferView":6,
			"componentType":5126,
			"count":2352,
			"type":"VEC2"
		},
		{
			"bufferView":7,
			"componentType":5123,
			"count":4116,
			"type":"SCALAR"
		},
		{
			"bufferView":8,
			"componentType":5126,
			"count":2628,
			"max":[
				1.2273170948028564,
				6.363976955413818,
				0.9137753844261169
			],
			"min":[
				-1.2331171035766602,
				2.4910061359405518,
				-1.2512158155441284
			],
			"type":"VEC3"
		},
		{
			"bufferView":9,
			"componentType":5126,
			"count":2628,
			"type":"VEC3"
		},
		{
			"bufferView":10,
			"componentType":5126,
			"count":2628,
			"type":"VEC2"
		},
		{
			"bufferView":11,
			"componentType":5123,
			"count":8400,
			"type":"SCALAR"
		}
	],
	"bufferViews":[
		{
			"buffer":0,
			"byteLength":28224,
			"byteOffset":0,
			"target":34962
		},
		{
			"buffer":0,
			"byteLength":28224,
			"byteOffset":28224,
			"target":34962
		},
		{
			"buffer":0,
			"byteLength":18816,
			"byteOffset":56448,
			"target":34962
		},
		{
			"buffer":0,
			"byteLength":8232,
			"byteOffset":75264,
			"target":34963
		},
		{
			"buffer":0,
			"byteLength":28224,
			"byteOffset":83496,
			"target":34962
		},
		{
			"buffer":0,
			"byteLength":28224,
			"byteOffset":111720,
			"target":34962
		},
		{
			"buffer":0,
			"byteLength":18816,
			"byteOffset":139944,
			"target":34962
		},
		{
			"buffer":0,
			"byteLength":8232,
			"byteOffset":158760,
			"target":34963
		},
		{
			"buffer":0,
			"byteLength":31536,
			"byteOffset":166992,
			"target":34962
		},
		{
			"buffer":0,
			"byteLength":31536,
			"byteOffset":198528,
			"target":34962
		},
		{
			"buffer":0,
			"byteLength":21024,
			"byteOffset":230064,
			"target":34962
		},
		{
			"buffer":0,
			"byteLength":16800,
			"byteOffset":251088,
			"target":34963
		}
	],
	"samplers":[
		{
			"magFilter":9729,
			"minFilter":9987
		}
	],
	"buffers":[
		{
			"byteLength":267888,
			"uri":"bamboo.bin"
		}
	]
}
