{
	"asset":{
		"generator":"Khronos glTF Blender I/O v4.5.51",
		"version":"2.0"
	},
	"scene":0,
	"scenes":[
		{
			"name":"Scene",
			"nodes":[
				1
			]
		}
	],
	"nodes":[
		{
			"mesh":0,
			"name":"BroadleafMesh"
		},
		{
			"children":[
				0
			],
			"name":"Broadleaf"
		}
	],
	"materials":[
		{
			"doubleSided":true,
			"name":"bark",
			"normalTexture":{
				"index":0
			},
			"pbrMetallicRoughness":{
				"baseColorTexture":{
					"index":1
				},
				"metallicFactor":0,
				"roughnessFactor":0.949999988079071
			}
		},
		{
			"doubleSided":true,
			"name":"leaves",
			"normalTexture":{
				"index":2
			},
			"pbrMetallicRoughness":{
				"baseColorTexture":{
					"index":3
				},
				"metallicFactor":0,
				"roughnessFactor":0.8999999761581421
			}
		}
	],
	"meshes":[
		{
			"name":"BroadleafMesh",
			"primitives":[
				{
					"attributes":{
						"POSITION":0,
						"NORMAL":1,
						"TEXCOORD_0":2
					},
					"indices":3,
					"material":0
				},
				{
					"attributes":{
						"POSITION":4,
						"NORMAL":5,
						"TEXCOORD_0":6
					},
					"indices":7,
					"material":1
				}
			]
		}
	],
	"textures":[
		{
			"sampler":0,
			"source":0
		},
		{
			"sampler":0,
			"source":1
		},
		{
			"sampler":0,
			"source":2
		},
		{
			"sampler":0,
			"source":3
		}
	],
	"images":[
		{
			"mimeType":"image/png",
			"name":"bark_normal.png",
			"uri":"../textures/bark_normal.png"
		},
		{
			"mimeType":"image/png",
			"name":"bark_albedo.png",
			"uri":"../textures/bark_albedo.png"
		},
		{
			"mimeType":"image/png",
			"name":"leaves_normal.png",
			"uri":"../textures/leaves_normal.png"
		},
		{
			"mimeType":"image/png",
			"name":"leaves_albedo.png",
			"uri":"../textures/leaves_albedo.png"
		}
	],
	"accessors":[
		{
			"bufferView":0,
			"componentType":5126,
			"count":404,
			"max":[
				1.1598716974258423,
				3.484692335128784,
				1.111644983291626
			],
			"min":[
				-0.7776957750320435,
				-0.10852289944887161,
				-0.9133186340332031
			],
			"type":"VEC3"
		},
		{
			"bufferView":1,
			"componentType":5126,
			"count":404,
			"type":"VEC3"
		},
		{
			"bufferView":2,
			"componentType":5126,
			"count":404,
			"type":"VEC2"
		},
		{
			"bufferView":3,
			"componentType":5123,
			"count":876,
			"type":"SCALAR"
		},
		{
			"bufferView":4,
			"componentType":5126,
			"count":4535,
			"max":[
				2.2618517875671387,
				4.874629020690918,
				2.3024814128875732
			],
			"min":[
				-1.9999606609344482,
				1.99747633934021,
				-1.9642002582550049
			],
			"type":"VEC3"
		},
		{
			"bufferView":5,
			"componentType":5126,
			"count":4535,
			"type":"VEC3"
		},
		{
			"bufferView":6,
			"componentType":5126,
			"count":4535,
			"type":"VEC2"
		},
		{
			"bufferView":7,
			"componentType":5123,
			"count":12480,
			"type":"SCALAR"
		}
	],
	"bufferViews":[
		{
			"buffer":0,
			"byteLength":4848,
			"byteOffset":0,
			"target":34962
		},
		{
			"buffer":0,
			"byteLength":4848,
			"byteOffset":4848,
			"target":34962
		},
		{
			"buffer":0,
			"byteLength":3232,
			"byteOffset":9696,
			"target":34962
		},
		{
			"buffer":0,
			"byteLength":1752,
			"byteOffset":12928,
			"target":34963
		},
		{
			"buffer":0,
			"byteLength":54420,
			"byteOffset":14680,
			"target":34962
		},
		{
			"buffer":0,
			"byteLength":54420,
			"byteOffset":69100,
			"target":34962
		},
		{
			"buffer":0,
			"byteLength":36280,
			"byteOffset":123520,
			"target":34962
		},
		{
			"buffer":0,
			"byteLength":24960,
			"byteOffset":159800,
			"target":34963
		}
	],
	"samplers":[
		{
			"magFilter":9729,
			"minFilter":9987
		}
	],
	"buffers":[
		{
			"byteLength":184760,
			"uri":"broadleaf.bin"
		}
	]
}
