{
	"asset":{
		"generator":"Khronos glTF Blender I/O v4.5.51",
		"version":"2.0"
	},
	"scene":0,
	"scenes":[
		{
			"name":"Scene",
			"nodes":[
				1
			]
		}
	],
	"nodes":[
		{
			"mesh":0,
			"name":"DamMesh"
		},
		{
			"children":[
				0
			],
			"name":"Dam"
		}
	],
	"materials":[
		{
			"doubleSided":true,
			"name":"stone_blocks",
			"normalTexture":{
				"index":0
			},
			"pbrMetallicRoughness":{
				"baseColorTexture":{
					"index":1
				},
				"metallicFactor":0,
				"roughnessFactor":0.8999999761581421
			}
		},
		{
			"doubleSided":true,
			"name":"stone_blocks_cccccc",
			"normalTexture":{
				"index":2
			},
			"pbrMetallicRoughness":{
				"baseColorFactor":[
					0.6038273572921753,
					0.6038273572921753,
					0.6038273572921753,
					1
				],
				"baseColorTexture":{
					"index":3
				},
				"metallicFactor":0,
				"roughnessFactor":0.8999999761581421
			}
		},
		{
			"doubleSided":true,
			"name":"wood",
			"normalTexture":{
				"index":4
			},
			"pbrMetallicRoughness":{
				"baseColorTexture":{
					"index":5
				},
				"metallicFactor":0,
				"roughnessFactor":0.8500000238418579
			}
		},
		{
			"doubleSided":true,
			"name":"wood_dark",
			"normalTexture":{
				"index":6
			},
			"pbrMetallicRoughness":{
				"baseColorTexture":{
					"index":7
				},
				"metallicFactor":0,
				"roughnessFactor":0.800000011920929
			}
		},
		{
			"doubleSided":true,
			"name":"rock",
			"normalTexture":{
				"index":8
			},
			"pbrMetallicRoughness":{
				"baseColorTexture":{
					"index":9
				},
				"metallicFactor":0,
				"roughnessFactor":0.8999999761581421
			}
		}
	],
	"meshes":[
		{
			"name":"DamMesh",
			"primitives":[
				{
					"attributes":{
						"POSITION":0,
						"NORMAL":1,
						"TEXCOORD_0":2
					},
					"indices":3,
					"material":0
				},
				{
					"attributes":{
						"POSITION":4,
						"NORMAL":5,
						"TEXCOORD_0":6
					},
					"indices":7,
					"material":1
				},
				{
					"attributes":{
						"POSITION":8,
						"NORMAL":9,
						"TEXCOORD_0":10
					},
					"indices":3,
					"material":2
				},
				{
					"attributes":{
						"POSITION":11,
						"NORMAL":12,
						"TEXCOORD_0":13
					},
					"indices":14,
					"material":3
				},
				{
					"attributes":{
						"POSITION":15,
						"NORMAL":16,
						"TEXCOORD_0":17
					},
					"indices":18,
					"material":4
				}
			]
		}
	],
	"textures":[
		{
			"sampler":0,
			"source":0
		},
		{
			"sampler":0,
			"source":1
		},
		{
			"sampler":0,
			"source":0
		},
		{
			"sampler":0,
			"source":1
		},
		{
			"sampler":0,
			"source":2
		},
		{
			"sampler":0,
			"source":3
		},
		{
			"sampler":0,
			"source":4
		},
		{
			"sampler":0,
			"source":5
		},
		{
			"sampler":0,
			"source":6
		},
		{
			"sampler":0,
			"source":7
		}
	],
	"images":[
		{
			"mimeType":"image/png",
			"name":"stone_blocks_normal.png",
			"uri":"../textures/stone_blocks_normal.png"
		},
		{
			"mimeType":"image/png",
			"name":"stone_blocks_albedo.png",
			"uri":"../textures/stone_blocks_albedo.png"
		},
		{
			"mimeType":"image/png",
			"name":"wood_normal.png",
			"uri":"../textures/wood_normal.png"
		},
		{
			"mimeType":"image/png",
			"name":"wood_albedo.png",
			"uri":"../textures/wood_albedo.png"
		},
		{
			"mimeType":"image/png",
			"name":"wood_dark_normal.png",
			"uri":"../textures/wood_dark_normal.png"
		},
		{
			"mimeType":"image/png",
			"name":"wood_dark_albedo.png",
			"uri":"../textures/wood_dark_albedo.png"
		},
		{
			"mimeType":"image/png",
			"name":"rock_normal.png",
			"uri":"../textures/rock_normal.png"
		},
		{
			"mimeType":"image/png",
			"name":"rock_albedo.png",
			"uri":"../textures/rock_albedo.png"
		}
	],
	"accessors":[
		{
			"bufferView":0,
			"componentType":5126,
			"count":48,
			"max":[
				21,
				10,
				2
			],
			"min":[
				-21,
				0,
				-2
			],
			"type":"VEC3"
		},
		{
			"bufferView":1,
			"componentType":5126,
			"count":48,
			"type":"VEC3"
		},
		{
			"bufferView":2,
			"componentType":5126,
			"count":48,
			"type":"VEC2"
		},
		{
			"bufferView":3,
			"componentType":5123,
			"count":72,
			"type":"SCALAR"
		},
		{
			"bufferView":4,
			"componentType":5126,
			"count":600,
			"max":[
				19.700000762939453,
				9.199999809265137,
				3
			],
			"min":[
				-19.700000762939453,
				0,
				-2
			],
			"type":"VEC3"
		},
		{
			"bufferView":5,
			"componentType":5126,
			"count":600,
			"type":"VEC3"
		},
		{
			"bufferView":6,
			"componentType":5126,
			"count":600,
			"type":"VEC2"
		},
		{
			"bufferView":7,
			"componentType":5123,
			"count":1980,
			"type":"SCALAR"
		},
		{
			"bufferView":8,
			"componentType":5126,
			"count":48,
			"max":[
				21.200000762939453,
				10.200000762939453,
				2.200000047683716
			],
			"min":[
				-21.200000762939453,
				10,
				-2.200000047683716
			],
			"type":"VEC3"
		},
		{
			"bufferView":9,
			"componentType":5126,
			"count":48,
			"type":"VEC3"
		},
		{
			"bufferView":10,
			"componentType":5126,
			"count":48,
			"type":"VEC2"
		},
		{
			"bufferView":11,
			"componentType":5126,
			"count":480,
			"max":[
				20.799999237060547,
				11.110000610351562,
				2.069999933242798
			],
			"min":[
				-20.799999237060547,
				10.199999809265137,
				1.9299999475479126
			],
			"type":"VEC3"
		},
		{
			"bufferView":12,
			"componentType":5126,
			"count":480,
			"type":"VEC3"
		},
		{
			"bufferView":13,
			"componentType":5126,
			"count":480,
			"type":"VEC2"
		},
		{
			"bufferView":14,
			"componentType":5123,
			"count":720,
			"type":"SCALAR"
		},
		{
			"bufferView":15,
			"componentType":5126,
			"count":1331,
			"max":[
				16.74446678161621,
				1.75931978225708,
				6.791345596313477
			],
			"min":[
				-15.482159614562988,
				-0.06011664867401123,
				2.76543927192688
			],
			"type":"VEC3"
		},
		{
			"bufferView":16,
			"componentType":5126,
			"count":1331,
			"type":"VEC3"
		},
		{
			"bufferView":17,
			"componentType":5126,
			"count":1331,
			"type":"VEC2"
		},
		{
			"bufferView":18,
			"componentType":5123,
			"count":3840,
			"type":"SCALAR"
		}
	],
	"bufferViews":[
		{
			"buffer":0,
			"byteLength":576,
			"byteOffset":0,
			"target":34962
		},
		{
			"buffer":0,
			"byteLength":576,
			"byteOffset":576,
			"target":34962
		},
		{
			"buffer":0,
			"byteLength":384,
			"byteOffset":1152,
			"target":34962
		},
		{
			"buffer":0,
			"byteLength":144,
			"byteOffset":1536,
			"target":34963
		},
		{
			"buffer":0,
			"byteLength":7200,
			"byteOffset":1680,
			"target":34962
		},
		{
			"buffer":0,
			"byteLength":7200,
			"byteOffset":8880,
			"target":34962
		},
		{
			"buffer":0,
			"byteLength":4800,
			"byteOffset":16080,
			"target":34962
		},
		{
			"buffer":0,
			"byteLength":3960,
			"byteOffset":20880,
			"target":34963
		},
		{
			"buffer":0,
			"byteLength":576,
			"byteOffset":24840,
			"target":34962
		},
		{
			"buffer":0,
			"byteLength":576,
			"byteOffset":25416,
			"target":34962
		},
		{
			"buffer":0,
			"byteLength":384,
			"byteOffset":25992,
			"target":34962
		},
		{
			"buffer":0,
			"byteLength":5760,
			"byteOffset":26376,
			"target":34962
		},
		{
			"buffer":0,
			"byteLength":5760,
			"byteOffset":32136,
			"target":34962
		},
		{
			"buffer":0,
			"byteLength":3840,
			"byteOffset":37896,
			"target":34962
		},
		{
			"buffer":0,
			"byteLength":1440,
			"byteOffset":41736,
			"target":34963
		},
		{
			"buffer":0,
			"byteLength":15972,
			"byteOffset":43176,
			"target":34962
		},
		{
			"buffer":0,
			"byteLength":15972,
			"byteOffset":59148,
			"target":34962
		},
		{
			"buffer":0,
			"byteLength":10648,
			"byteOffset":75120,
			"target":34962
		},
		{
			"buffer":0,
			"byteLength":7680,
			"byteOffset":85768,
			"target":34963
		}
	],
	"samplers":[
		{
			"magFilter":9729,
			"minFilter":9987
		}
	],
	"buffers":[
		{
			"byteLength":93448,
			"uri":"dam.bin"
		}
	]
}
