{
	"asset":{
		"generator":"Khronos glTF Blender I/O v4.5.51",
		"version":"2.0"
	},
	"scene":0,
	"scenes":[
		{
			"name":"Scene",
			"nodes":[
				1
			]
		}
	],
	"nodes":[
		{
			"mesh":0,
			"name":"DeadTreeMesh"
		},
		{
			"children":[
				0
			],
			"name":"DeadTree"
		}
	],
	"materials":[
		{
			"doubleSided":true,
			"name":"bark_9e9993",
			"normalTexture":{
				"index":0
			},
			"pbrMetallicRoughness":{
				"baseColorFactor":[
					0.34239163994789124,
					0.31854677200317383,
					0.295699805021286,
					1
				],
				"baseColorTexture":{
					"index":1
				},
				"metallicFactor":0,
				"roughnessFactor":0.949999988079071
			}
		}
	],
	"meshes":[
		{
			"name":"DeadTreeMesh",
			"primitives":[
				{
					"attributes":{
						"POSITION":0,
						"NORMAL":1,
						"TEXCOORD_0":2
					},
					"indices":3,
					"material":0
				}
			]
		}
	],
	"textures":[
		{
			"sampler":0,
			"source":0
		},
		{
			"sampler":0,
			"source":1
		}
	],
	"images":[
		{
			"mimeType":"image/png",
			"name":"bark_normal.png",
			"uri":"../textures/bark_normal.png"
		},
		{
			"mimeType":"image/png",
			"name":"bark_albedo.png",
			"uri":"../textures/bark_albedo.png"
		}
	],
	"accessors":[
		{
			"bufferView":0,
			"componentType":5126,
			"count":954,
			"max":[
				1.3857101202011108,
				4.016457557678223,
				1.0363720655441284
			],
			"min":[
				-1.036046028137207,
				0,
				-0.8152013421058655
			],
			"type":"VEC3"
		},
		{
			"bufferView":1,
			"componentType":5126,
			"count":954,
			"type":"VEC3"
		},
		{
			"bufferView":2,
			"componentType":5126,
			"count":954,
			"type":"VEC2"
		},
		{
			"bufferView":3,
			"componentType":5123,
			"count":2268,
			"type":"SCALAR"
		}
	],
	"bufferViews":[
		{
			"buffer":0,
			"byteLength":11448,
			"byteOffset":0,
			"target":34962
		},
		{
			"buffer":0,
			"byteLength":11448,
			"byteOffset":11448,
			"target":34962
		},
		{
			"buffer":0,
			"byteLength":7632,
			"byteOffset":22896,
			"target":34962
		},
		{
			"buffer":0,
			"byteLength":4536,
			"byteOffset":30528,
			"target":34963
		}
	],
	"samplers":[
		{
			"magFilter":9729,
			"minFilter":9987
		}
	],
	"buffers":[
		{
			"byteLength":35064,
			"uri":"dead_tree.bin"
		}
	]
}
