{
	"asset":{
		"generator":"Khronos glTF Blender I/O v4.5.51",
		"version":"2.0"
	},
	"scene":0,
	"scenes":[
		{
			"name":"Scene",
			"nodes":[
				1
			]
		}
	],
	"nodes":[
		{
			"mesh":0,
			"name":"FenceMesh"
		},
		{
			"children":[
				0
			],
			"name":"Fence"
		}
	],
	"materials":[
		{
			"doubleSided":true,
			"name":"wood_dark",
			"normalTexture":{
				"index":0
			},
			"pbrMetallicRoughness":{
				"baseColorTexture":{
					"index":1
				},
				"metallicFactor":0,
				"roughnessFactor":0.800000011920929
			}
		},
		{
			"doubleSided":true,
			"name":"straw",
			"normalTexture":{
				"index":2
			},
			"pbrMetallicRoughness":{
				"baseColorTexture":{
					"index":3
				},
				"metallicFactor":0,
				"roughnessFactor":0.949999988079071
			}
		},
		{
			"doubleSided":true,
			"name":"wood",
			"normalTexture":{
				"index":4
			},
			"pbrMetallicRoughness":{
				"baseColorTexture":{
					"index":5
				},
				"metallicFactor":0,
				"roughnessFactor":0.8500000238418579
			}
		}
	],
	"meshes":[
		{
			"name":"FenceMesh",
			"primitives":[
				{
					"attributes":{
						"POSITION":0,
						"NORMAL":1,
						"TEXCOORD_0":2
					},
					"indices":3,
					"material":0
				},
				{
					"attributes":{
						"POSITION":4,
						"NORMAL":5,
						"TEXCOORD_0":6
					},
					"indices":7,
					"material":1
				},
				{
					"attributes":{
						"POSITION":8,
						"NORMAL":9,
						"TEXCOORD_0":10
					},
					"indices":11,
					"material":2
				}
			]
		}
	],
	"textures":[
		{
			"sampler":0,
			"source":0
		},
		{
			"sampler":0,
			"source":1
		},
		{
			"sampler":0,
			"source":2
		},
		{
			"sampler":0,
			"source":3
		},
		{
			"sampler":0,
			"source":4
		},
		{
			"sampler":0,
			"source":5
		}
	],
	"images":[
		{
			"mimeType":"image/png",
			"name":"wood_dark_normal.png",
			"uri":"../textures/wood_dark_normal.png"
		},
		{
			"mimeType":"image/png",
			"name":"wood_dark_albedo.png",
			"uri":"../textures/wood_dark_albedo.png"
		},
		{
			"mimeType":"image/png",
			"name":"straw_normal.png",
			"uri":"../textures/straw_normal.png"
		},
		{
			"mimeType":"image/png",
			"name":"straw_albedo.png",
			"uri":"../textures/straw_albedo.png"
		},
		{
			"mimeType":"image/png",
			"name":"wood_normal.png",
			"uri":"../textures/wood_normal.png"
		},
		{
			"mimeType":"image/png",
			"name":"wood_albedo.png",
			"uri":"../textures/wood_albedo.png"
		}
	],
	"accessors":[
		{
			"bufferView":0,
			"componentType":5126,
			"count":288,
			"max":[
				2.069999933242798,
				1.2450000047683716,
				0.07000000029802322
			],
			"min":[
				-2.069999933242798,
				-0.004999995231628418,
				-0.07000000029802322
			],
			"type":"VEC3"
		},
		{
			"bufferView":1,
			"componentType":5126,
			"count":288,
			"type":"VEC3"
		},
		{
			"bufferView":2,
			"componentType":5126,
			"count":288,
			"type":"VEC2"
		},
		{
			"bufferView":3,
			"componentType":5123,
			"count":972,
			"type":"SCALAR"
		},
		{
			"bufferView":4,
			"componentType":5126,
			"count":1500,
			"max":[
				2.101363182067871,
				1.0113831758499146,
				0.10112737864255905
			],
			"min":[
				-2.101363182067871,
				0.38861680030822754,
				-0.10200000554323196
			],
			"type":"VEC3"
		},
		{
			"bufferView":5,
			"componentType":5126,
			"count":1500,
			"type":"VEC3"
		},
		{
			"bufferView":6,
			"componentType":5126,
			"count":1500,
			"type":"VEC2"
		},
		{
			"bufferView":7,
			"componentType":5123,
			"count":4320,
			"type":"SCALAR"
		},
		{
			"bufferView":8,
			"componentType":5126,
			"count":192,
			"max":[
				2.049999952316284,
				1.0049999952316284,
				0.13500000536441803
			],
			"min":[
				-2.049999952316284,
				0.39499998092651367,
				0.06499999761581421
			],
			"type":"VEC3"
		},
		{
			"bufferView":9,
			"componentType":5126,
			"count":192,
			"type":"VEC3"
		},
		{
			"bufferView":10,
			"componentType":5126,
			"count":192,
			"type":"VEC2"
		},
		{
			"bufferView":11,
			"componentType":5123,
			"count":648,
			"type":"SCALAR"
		}
	],
	"bufferViews":[
		{
			"buffer":0,
			"byteLength":3456,
			"byteOffset":0,
			"target":34962
		},
		{
			"buffer":0,
			"byteLength":3456,
			"byteOffset":3456,
			"target":34962
		},
		{
			"buffer":0,
			"byteLength":2304,
			"byteOffset":6912,
			"target":34962
		},
		{
			"buffer":0,
			"byteLength":1944,
			"byteOffset":9216,
			"target":34963
		},
		{
			"buffer":0,
			"byteLength":18000,
			"byteOffset":11160,
			"target":34962
		},
		{
			"buffer":0,
			"byteLength":18000,
			"byteOffset":29160,
			"target":34962
		},
		{
			"buffer":0,
			"byteLength":12000,
			"byteOffset":47160,
			"target":34962
		},
		{
			"buffer":0,
			"byteLength":8640,
			"byteOffset":59160,
			"target":34963
		},
		{
			"buffer":0,
			"byteLength":2304,
			"byteOffset":67800,
			"target":34962
		},
		{
			"buffer":0,
			"byteLength":2304,
			"byteOffset":70104,
			"target":34962
		},
		{
			"buffer":0,
			"byteLength":1536,
			"byteOffset":72408,
			"target":34962
		},
		{
			"buffer":0,
			"byteLength":1296,
			"byteOffset":73944,
			"target":34963
		}
	],
	"samplers":[
		{
			"magFilter":9729,
			"minFilter":9987
		}
	],
	"buffers":[
		{
			"byteLength":75240,
			"uri":"fence.bin"
		}
	]
}
