{
	"asset":{
		"generator":"Khronos glTF Blender I/O v4.5.51",
		"version":"2.0"
	},
	"scene":0,
	"scenes":[
		{
			"name":"Scene",
			"nodes":[
				1
			]
		}
	],
	"nodes":[
		{
			"mesh":0,
			"name":"GateMesh"
		},
		{
			"children":[
				0
			],
			"name":"Gate"
		}
	],
	"materials":[
		{
			"doubleSided":true,
			"name":"black_lacquer",
			"normalTexture":{
				"index":0
			},
			"pbrMetallicRoughness":{
				"baseColorTexture":{
					"index":1
				},
				"metallicFactor":0,
				"roughnessFactor":0.44999998807907104
			}
		},
		{
			"doubleSided":true,
			"name":"red_lacquer",
			"normalTexture":{
				"index":2
			},
			"pbrMetallicRoughness":{
				"baseColorTexture":{
					"index":3
				},
				"metallicFactor":0,
				"roughnessFactor":0.44999998807907104
			}
		},
		{
			"doubleSided":true,
			"name":"plaster_f2d88c",
			"normalTexture":{
				"index":4
			},
			"pbrMetallicRoughness":{
				"baseColorFactor":[
					0.8900054097175598,
					0.6920710802078247,
					0.2632734179496765,
					1
				],
				"baseColorTexture":{
					"index":5
				},
				"metallicFactor":0,
				"roughnessFactor":0.949999988079071
			}
		}
	],
	"meshes":[
		{
			"name":"GateMesh",
			"primitives":[
				{
					"attributes":{
						"POSITION":0,
						"NORMAL":1,
						"TEXCOORD_0":2
					},
					"indices":3,
					"material":0
				},
				{
					"attributes":{
						"POSITION":4,
						"NORMAL":5,
						"TEXCOORD_0":6
					},
					"indices":7,
					"material":1
				},
				{
					"attributes":{
						"POSITION":8,
						"NORMAL":9,
						"TEXCOORD_0":10
					},
					"indices":11,
					"material":2
				}
			]
		}
	],
	"textures":[
		{
			"sampler":0,
			"source":0
		},
		{
			"sampler":0,
			"source":1
		},
		{
			"sampler":0,
			"source":2
		},
		{
			"sampler":0,
			"source":3
		},
		{
			"sampler":0,
			"source":4
		},
		{
			"sampler":0,
			"source":5
		}
	],
	"images":[
		{
			"mimeType":"image/png",
			"name":"black_lacquer_normal.png",
			"uri":"../textures/black_lacquer_normal.png"
		},
		{
			"mimeType":"image/png",
			"name":"black_lacquer_albedo.png",
			"uri":"../textures/black_lacquer_albedo.png"
		},
		{
			"mimeType":"image/png",
			"name":"red_lacquer_normal.png",
			"uri":"../textures/red_lacquer_normal.png"
		},
		{
			"mimeType":"image/png",
			"name":"red_lacquer_albedo.png",
			"uri":"../textures/red_lacquer_albedo.png"
		},
		{
			"mimeType":"image/png",
			"name":"plaster_normal.png",
			"uri":"../textures/plaster_normal.png"
		},
		{
			"mimeType":"image/png",
			"name":"plaster_albedo.png",
			"uri":"../textures/plaster_albedo.png"
		}
	],
	"accessors":[
		{
			"bufferView":0,
			"componentType":5126,
			"count":1710,
			"max":[
				3.1500000953674316,
				4.820000171661377,
				0.26816728711128235
			],
			"min":[
				-3.1500000953674316,
				0,
				-0.26816728711128235
			],
			"type":"VEC3"
		},
		{
			"bufferView":1,
			"componentType":5126,
			"count":1710,
			"type":"VEC3"
		},
		{
			"bufferView":2,
			"componentType":5126,
			"count":1710,
			"type":"VEC2"
		},
		{
			"bufferView":3,
			"componentType":5123,
			"count":5352,
			"type":"SCALAR"
		},
		{
			"bufferView":4,
			"componentType":5126,
			"count":564,
			"max":[
				2.8499999046325684,
				4.489999771118164,
				0.20999999344348907
			],
			"min":[
				-2.8499999046325684,
				0.30000007152557373,
				-0.20999999344348907
			],
			"type":"VEC3"
		},
		{
			"bufferView":5,
			"componentType":5126,
			"count":564,
			"type":"VEC3"
		},
		{
			"bufferView":6,
			"componentType":5126,
			"count":564,
			"type":"VEC2"
		},
		{
			"bufferView":7,
			"componentType":5123,
			"count":1692,
			"type":"SCALAR"
		},
		{
			"bufferView":8,
			"componentType":5126,
			"count":24,
			"max":[
				0.18000000715255737,
				4.029999732971191,
				0.17000000178813934
			],
			"min":[
				-0.18000000715255737,
				3.5299999713897705,
				0.14999999105930328
			],
			"type":"VEC3"
		},
		{
			"bufferView":9,
			"componentType":5126,
			"count":24,
			"type":"VEC3"
		},
		{
			"bufferView":10,
			"componentType":5126,
			"count":24,
			"type":"VEC2"
		},
		{
			"bufferView":11,
			"componentType":5123,
			"count":36,
			"type":"SCALAR"
		}
	],
	"bufferViews":[
		{
			"buffer":0,
			"byteLength":20520,
			"byteOffset":0,
			"target":34962
		},
		{
			"buffer":0,
			"byteLength":20520,
			"byteOffset":20520,
			"target":34962
		},
		{
			"buffer":0,
			"byteLength":13680,
			"byteOffset":41040,
			"target":34962
		},
		{
			"buffer":0,
			"byteLength":10704,
			"byteOffset":54720,
			"target":34963
		},
		{
			"buffer":0,
			"byteLength":6768,
			"byteOffset":65424,
			"target":34962
		},
		{
			"buffer":0,
			"byteLength":6768,
			"byteOffset":72192,
			"target":34962
		},
		{
			"buffer":0,
			"byteLength":4512,
			"byteOffset":78960,
			"target":34962
		},
		{
			"buffer":0,
			"byteLength":3384,
			"byteOffset":83472,
			"target":34963
		},
		{
			"buffer":0,
			"byteLength":288,
			"byteOffset":86856,
			"target":34962
		},
		{
			"buffer":0,
			"byteLength":288,
			"byteOffset":87144,
			"target":34962
		},
		{
			"buffer":0,
			"byteLength":192,
			"byteOffset":87432,
			"target":34962
		},
		{
			"buffer":0,
			"byteLength":72,
			"byteOffset":87624,
			"target":34963
		}
	],
	"samplers":[
		{
			"magFilter":9729,
			"minFilter":9987
		}
	],
	"buffers":[
		{
			"byteLength":87696,
			"uri":"gate.bin"
		}
	]
}
