{
	"asset":{
		"generator":"Khronos glTF Blender I/O v4.5.51",
		"version":"2.0"
	},
	"scene":0,
	"scenes":[
		{
			"name":"Scene",
			"nodes":[
				1
			]
		}
	],
	"nodes":[
		{
			"mesh":0,
			"name":"GateBrokenMesh"
		},
		{
			"children":[
				0
			],
			"name":"GateBroken"
		}
	],
	"materials":[
		{
			"doubleSided":true,
			"name":"black_lacquer",
			"normalTexture":{
				"index":0
			},
			"pbrMetallicRoughness":{
				"baseColorTexture":{
					"index":1
				},
				"metallicFactor":0,
				"roughnessFactor":0.44999998807907104
			}
		},
		{
			"doubleSided":true,
			"name":"red_lacquer",
			"normalTexture":{
				"index":2
			},
			"pbrMetallicRoughness":{
				"baseColorTexture":{
					"index":3
				},
				"metallicFactor":0,
				"roughnessFactor":0.44999998807907104
			}
		},
		{
			"doubleSided":true,
			"name":"wood",
			"normalTexture":{
				"index":4
			},
			"pbrMetallicRoughness":{
				"baseColorTexture":{
					"index":5
				},
				"metallicFactor":0,
				"roughnessFactor":0.8500000238418579
			}
		},
		{
			"doubleSided":true,
			"name":"rock",
			"normalTexture":{
				"index":6
			},
			"pbrMetallicRoughness":{
				"baseColorTexture":{
					"index":7
				},
				"metallicFactor":0,
				"roughnessFactor":0.8999999761581421
			}
		}
	],
	"meshes":[
		{
			"name":"GateBrokenMesh",
			"primitives":[
				{
					"attributes":{
						"POSITION":0,
						"NORMAL":1,
						"TEXCOORD_0":2
					},
					"indices":3,
					"material":0
				},
				{
					"attributes":{
						"POSITION":4,
						"NORMAL":5,
						"TEXCOORD_0":6
					},
					"indices":7,
					"material":1
				},
				{
					"attributes":{
						"POSITION":8,
						"NORMAL":9,
						"TEXCOORD_0":10
					},
					"indices":11,
					"material":2
				},
				{
					"attributes":{
						"POSITION":12,
						"NORMAL":13,
						"TEXCOORD_0":14
					},
					"indices":15,
					"material":3
				}
			]
		}
	],
	"textures":[
		{
			"sampler":0,
			"source":0
		},
		{
			"sampler":0,
			"source":1
		},
		{
			"sampler":0,
			"source":2
		},
		{
			"sampler":0,
			"source":3
		},
		{
			"sampler":0,
			"source":4
		},
		{
			"sampler":0,
			"source":5
		},
		{
			"sampler":0,
			"source":6
		},
		{
			"sampler":0,
			"source":7
		}
	],
	"images":[
		{
			"mimeType":"image/png",
			"name":"black_lacquer_normal.png",
			"uri":"../textures/black_lacquer_normal.png"
		},
		{
			"mimeType":"image/png",
			"name":"black_lacquer_albedo.png",
			"uri":"../textures/black_lacquer_albedo.png"
		},
		{
			"mimeType":"image/png",
			"name":"red_lacquer_normal.png",
			"uri":"../textures/red_lacquer_normal.png"
		},
		{
			"mimeType":"image/png",
			"name":"red_lacquer_albedo.png",
			"uri":"../textures/red_lacquer_albedo.png"
		},
		{
			"mimeType":"image/png",
			"name":"wood_normal.png",
			"uri":"../textures/wood_normal.png"
		},
		{
			"mimeType":"image/png",
			"name":"wood_albedo.png",
			"uri":"../textures/wood_albedo.png"
		},
		{
			"mimeType":"image/png",
			"name":"rock_normal.png",
			"uri":"../textures/rock_normal.png"
		},
		{
			"mimeType":"image/png",
			"name":"rock_albedo.png",
			"uri":"../textures/rock_albedo.png"
		}
	],
	"accessors":[
		{
			"bufferView":0,
			"componentType":5126,
			"count":1340,
			"max":[
				4.25,
				4.119999885559082,
				1.9199999570846558
			],
			"min":[
				-2.26816725730896,
				0,
				-0.26816728711128235
			],
			"type":"VEC3"
		},
		{
			"bufferView":1,
			"componentType":5126,
			"count":1340,
			"type":"VEC3"
		},
		{
			"bufferView":2,
			"componentType":5126,
			"count":1340,
			"type":"VEC2"
		},
		{
			"bufferView":3,
			"componentType":5123,
			"count":4152,
			"type":"SCALAR"
		},
		{
			"bufferView":4,
			"componentType":5126,
			"count":468,
			"max":[
				3.950000047683716,
				4.099999904632568,
				1.8700000047683716
			],
			"min":[
				-2.6457855701446533,
				0.009999999776482582,
				-0.20999999344348907
			],
			"type":"VEC3"
		},
		{
			"bufferView":5,
			"componentType":5126,
			"count":468,
			"type":"VEC3"
		},
		{
			"bufferView":6,
			"componentType":5126,
			"count":468,
			"type":"VEC2"
		},
		{
			"bufferView":7,
			"componentType":5123,
			"count":1368,
			"type":"SCALAR"
		},
		{
			"bufferView":8,
			"componentType":5126,
			"count":30,
			"max":[
				2.200000047683716,
				1.9566764831542969,
				0.20000000298023224
			],
			"min":[
				1.7999999523162842,
				1.6755555868148804,
				-0.20000000298023224
			],
			"type":"VEC3"
		},
		{
			"bufferView":9,
			"componentType":5126,
			"count":30,
			"type":"VEC3"
		},
		{
			"bufferView":10,
			"componentType":5126,
			"count":30,
			"type":"VEC2"
		},
		{
			"bufferView":11,
			"componentType":5123,
			"count":36,
			"type":"SCALAR"
		},
		{
			"bufferView":12,
			"componentType":5126,
			"count":101,
			"max":[
				2.9817116260528564,
				0.4037311375141144,
				-0.37758690118789673
			],
			"min":[
				2.189955711364746,
				-0.07913116365671158,
				-0.9990310668945312
			],
			"type":"VEC3"
		},
		{
			"bufferView":13,
			"componentType":5126,
			"count":101,
			"type":"VEC3"
		},
		{
			"bufferView":14,
			"componentType":5126,
			"count":101,
			"type":"VEC2"
		},
		{
			"bufferView":15,
			"componentType":5123,
			"count":240,
			"type":"SCALAR"
		}
	],
	"bufferViews":[
		{
			"buffer":0,
			"byteLength":16080,
			"byteOffset":0,
			"target":34962
		},
		{
			"buffer":0,
			"byteLength":16080,
			"byteOffset":16080,
			"target":34962
		},
		{
			"buffer":0,
			"byteLength":10720,
			"byteOffset":32160,
			"target":34962
		},
		{
			"buffer":0,
			"byteLength":8304,
			"byteOffset":42880,
			"target":34963
		},
		{
			"buffer":0,
			"byteLength":5616,
			"byteOffset":51184,
			"target":34962
		},
		{
			"buffer":0,
			"byteLength":5616,
			"byteOffset":56800,
			"target":34962
		},
		{
			"buffer":0,
			"byteLength":3744,
			"byteOffset":62416,
			"target":34962
		},
		{
			"buffer":0,
			"byteLength":2736,
			"byteOffset":66160,
			"target":34963
		},
		{
			"buffer":0,
			"byteLength":360,
			"byteOffset":68896,
			"target":34962
		},
		{
			"buffer":0,
			"byteLength":360,
			"byteOffset":69256,
			"target":34962
		},
		{
			"buffer":0,
			"byteLength":240,
			"byteOffset":69616,
			"target":34962
		},
		{
			"buffer":0,
			"byteLength":72,
			"byteOffset":69856,
			"target":34963
		},
		{
			"buffer":0,
			"byteLength":1212,
			"byteOffset":69928,
			"target":34962
		},
		{
			"buffer":0,
			"byteLength":1212,
			"byteOffset":71140,
			"target":34962
		},
		{
			"buffer":0,
			"byteLength":808,
			"byteOffset":72352,
			"target":34962
		},
		{
			"buffer":0,
			"byteLength":480,
			"byteOffset":73160,
			"target":34963
		}
	],
	"samplers":[
		{
			"magFilter":9729,
			"minFilter":9987
		}
	],
	"buffers":[
		{
			"byteLength":73640,
			"uri":"gate_broken.bin"
		}
	]
}
