{
	"asset":{
		"generator":"Khronos glTF Blender I/O v4.5.51",
		"version":"2.0"
	},
	"scene":0,
	"scenes":[
		{
			"name":"Scene",
			"nodes":[
				1
			]
		}
	],
	"nodes":[
		{
			"mesh":0,
			"name":"HouseMesh"
		},
		{
			"children":[
				0
			],
			"name":"House"
		}
	],
	"materials":[
		{
			"doubleSided":true,
			"name":"stone_blocks",
			"normalTexture":{
				"index":0
			},
			"pbrMetallicRoughness":{
				"baseColorTexture":{
					"index":1
				},
				"metallicFactor":0,
				"roughnessFactor":0.8999999761581421
			}
		},
		{
			"doubleSided":true,
			"name":"wood",
			"normalTexture":{
				"index":2
			},
			"pbrMetallicRoughness":{
				"baseColorTexture":{
					"index":3
				},
				"metallicFactor":0,
				"roughnessFactor":0.8500000238418579
			}
		},
		{
			"doubleSided":true,
			"name":"wood_dark",
			"normalTexture":{
				"index":4
			},
			"pbrMetallicRoughness":{
				"baseColorTexture":{
					"index":5
				},
				"metallicFactor":0,
				"roughnessFactor":0.800000011920929
			}
		},
		{
			"doubleSided":true,
			"name":"shoji",
			"normalTexture":{
				"index":6
			},
			"pbrMetallicRoughness":{
				"baseColorTexture":{
					"index":7
				},
				"metallicFactor":0,
				"roughnessFactor":0.949999988079071
			}
		},
		{
			"doubleSided":true,
			"name":"plaster",
			"normalTexture":{
				"index":8
			},
			"pbrMetallicRoughness":{
				"baseColorTexture":{
					"index":9
				},
				"metallicFactor":0,
				"roughnessFactor":0.949999988079071
			}
		},
		{
			"doubleSided":true,
			"name":"roof_tiles",
			"normalTexture":{
				"index":10
			},
			"pbrMetallicRoughness":{
				"baseColorTexture":{
					"index":11
				},
				"metallicFactor":0,
				"roughnessFactor":0.699999988079071
			}
		}
	],
	"meshes":[
		{
			"name":"HouseMesh",
			"primitives":[
				{
					"attributes":{
						"POSITION":0,
						"NORMAL":1,
						"TEXCOORD_0":2
					},
					"indices":3,
					"material":0
				},
				{
					"attributes":{
						"POSITION":4,
						"NORMAL":5,
						"TEXCOORD_0":6
					},
					"indices":7,
					"material":1
				},
				{
					"attributes":{
						"POSITION":8,
						"NORMAL":9,
						"TEXCOORD_0":10
					},
					"indices":11,
					"material":2
				},
				{
					"attributes":{
						"POSITION":12,
						"NORMAL":13,
						"TEXCOORD_0":14
					},
					"indices":15,
					"material":3
				},
				{
					"attributes":{
						"POSITION":16,
						"NORMAL":17,
						"TEXCOORD_0":18
					},
					"indices":19,
					"material":4
				},
				{
					"attributes":{
						"POSITION":20,
						"NORMAL":21,
						"TEXCOORD_0":22
					},
					"indices":23,
					"material":5
				}
			]
		}
	],
	"textures":[
		{
			"sampler":0,
			"source":0
		},
		{
			"sampler":0,
			"source":1
		},
		{
			"sampler":0,
			"source":2
		},
		{
			"sampler":0,
			"source":3
		},
		{
			"sampler":0,
			"source":4
		},
		{
			"sampler":0,
			"source":5
		},
		{
			"sampler":0,
			"source":6
		},
		{
			"sampler":0,
			"source":7
		},
		{
			"sampler":0,
			"source":8
		},
		{
			"sampler":0,
			"source":9
		},
		{
			"sampler":0,
			"source":10
		},
		{
			"sampler":0,
			"source":11
		}
	],
	"images":[
		{
			"mimeType":"image/png",
			"name":"stone_blocks_normal.png",
			"uri":"../textures/stone_blocks_normal.png"
		},
		{
			"mimeType":"image/png",
			"name":"stone_blocks_albedo.png",
			"uri":"../textures/stone_blocks_albedo.png"
		},
		{
			"mimeType":"image/png",
			"name":"wood_normal.png",
			"uri":"../textures/wood_normal.png"
		},
		{
			"mimeType":"image/png",
			"name":"wood_albedo.png",
			"uri":"../textures/wood_albedo.png"
		},
		{
			"mimeType":"image/png",
			"name":"wood_dark_normal.png",
			"uri":"../textures/wood_dark_normal.png"
		},
		{
			"mimeType":"image/png",
			"name":"wood_dark_albedo.png",
			"uri":"../textures/wood_dark_albedo.png"
		},
		{
			"mimeType":"image/png",
			"name":"shoji_normal.png",
			"uri":"../textures/shoji_normal.png"
		},
		{
			"mimeType":"image/png",
			"name":"shoji_albedo.png",
			"uri":"../textures/shoji_albedo.png"
		},
		{
			"mimeType":"image/png",
			"name":"plaster_normal.png",
			"uri":"../textures/plaster_normal.png"
		},
		{
			"mimeType":"image/png",
			"name":"plaster_albedo.png",
			"uri":"../textures/plaster_albedo.png"
		},
		{
			"mimeType":"image/png",
			"name":"roof_tiles_normal.png",
			"uri":"../textures/roof_tiles_normal.png"
		},
		{
			"mimeType":"image/png",
			"name":"roof_tiles_albedo.png",
			"uri":"../textures/roof_tiles_albedo.png"
		}
	],
	"accessors":[
		{
			"bufferView":0,
			"componentType":5126,
			"count":192,
			"max":[
				3.200000047683716,
				0.5,
				3.8499999046325684
			],
			"min":[
				-3.200000047683716,
				0,
				-2.4000000953674316
			],
			"type":"VEC3"
		},
		{
			"bufferView":1,
			"componentType":5126,
			"count":192,
			"type":"VEC3"
		},
		{
			"bufferView":2,
			"componentType":5126,
			"count":192,
			"type":"VEC2"
		},
		{
			"bufferView":3,
			"componentType":5123,
			"count":648,
			"type":"SCALAR"
		},
		{
			"bufferView":4,
			"componentType":5126,
			"count":120,
			"max":[
				3.200000047683716,
				1.5,
				3.3499999046325684
			],
			"min":[
				-3.200000047683716,
				0.46000000834465027,
				-2.299999952316284
			],
			"type":"VEC3"
		},
		{
			"bufferView":5,
			"componentType":5126,
			"count":120,
			"type":"VEC3"
		},
		{
			"bufferView":6,
			"componentType":5126,
			"count":120,
			"type":"VEC2"
		},
		{
			"bufferView":7,
			"componentType":5123,
			"count":180,
			"type":"SCALAR"
		},
		{
			"bufferView":8,
			"componentType":5126,
			"count":2112,
			"max":[
				3.7799999713897705,
				5.6341233253479,
				3.319999933242798
			],
			"min":[
				-3.7799999713897705,
				0.5,
				-2.299999952316284
			],
			"type":"VEC3"
		},
		{
			"bufferView":9,
			"componentType":5126,
			"count":2112,
			"type":"VEC3"
		},
		{
			"bufferView":10,
			"componentType":5126,
			"count":2112,
			"type":"VEC2"
		},
		{
			"bufferView":11,
			"componentType":5123,
			"count":6588,
			"type":"SCALAR"
		},
		{
			"bufferView":12,
			"componentType":5126,
			"count":96,
			"max":[
				2.9100000858306885,
				2.5,
				2.2250001430511475
			],
			"min":[
				-2.9100000858306885,
				0.5999999642372131,
				2.174999952316284
			],
			"type":"VEC3"
		},
		{
			"bufferView":13,
			"componentType":5126,
			"count":96,
			"type":"VEC3"
		},
		{
			"bufferView":14,
			"componentType":5126,
			"count":96,
			"type":"VEC2"
		},
		{
			"bufferView":15,
			"componentType":5123,
			"count":144,
			"type":"SCALAR"
		},
		{
			"bufferView":16,
			"componentType":5126,
			"count":102,
			"max":[
				3.0399999618530273,
				4.550000190734863,
				2.2200000286102295
			],
			"min":[
				-3.0399999618530273,
				1.4999998807907104,
				-2.240000009536743
			],
			"type":"VEC3"
		},
		{
			"bufferView":17,
			"componentType":5126,
			"count":102,
			"type":"VEC3"
		},
		{
			"bufferView":18,
			"componentType":5126,
			"count":102,
			"type":"VEC2"
		},
		{
			"bufferView":19,
			"componentType":5123,
			"count":150,
			"type":"SCALAR"
		},
		{
			"bufferView":20,
			"componentType":5126,
			"count":962,
			"max":[
				3.6500000953674316,
				5.424123764038086,
				3.3499999046325684
			],
			"min":[
				-3.6500000953674316,
				3.140000104904175,
				-3.3499999046325684
			],
			"type":"VEC3"
		},
		{
			"bufferView":21,
			"componentType":5126,
			"count":962,
			"type":"VEC3"
		},
		{
			"bufferView":22,
			"componentType":5126,
			"count":962,
			"type":"VEC2"
		},
		{
			"bufferView":23,
			"componentType":5123,
			"count":4404,
			"type":"SCALAR"
		}
	],
	"bufferViews":[
		{
			"buffer":0,
			"byteLength":2304,
			"byteOffset":0,
			"target":34962
		},
		{
			"buffer":0,
			"byteLength":2304,
			"byteOffset":2304,
			"target":34962
		},
		{
			"buffer":0,
			"byteLength":1536,
			"byteOffset":4608,
			"target":34962
		},
		{
			"buffer":0,
			"byteLength":1296,
			"byteOffset":6144,
			"target":34963
		},
		{
			"buffer":0,
			"byteLength":1440,
			"byteOffset":7440,
			"target":34962
		},
		{
			"buffer":0,
			"byteLength":1440,
			"byteOffset":8880,
			"target":34962
		},
		{
			"buffer":0,
			"byteLength":960,
			"byteOffset":10320,
			"target":34962
		},
		{
			"buffer":0,
			"byteLength":360,
			"byteOffset":11280,
			"target":34963
		},
		{
			"buffer":0,
			"byteLength":25344,
			"byteOffset":11640,
			"target":34962
		},
		{
			"buffer":0,
			"byteLength":25344,
			"byteOffset":36984,
			"target":34962
		},
		{
			"buffer":0,
			"byteLength":16896,
			"byteOffset":62328,
			"target":34962
		},
		{
			"buffer":0,
			"byteLength":13176,
			"byteOffset":79224,
			"target":34963
		},
		{
			"buffer":0,
			"byteLength":1152,
			"byteOffset":92400,
			"target":34962
		},
		{
			"buffer":0,
			"byteLength":1152,
			"byteOffset":93552,
			"target":34962
		},
		{
			"buffer":0,
			"byteLength":768,
			"byteOffset":94704,
			"target":34962
		},
		{
			"buffer":0,
			"byteLength":288,
			"byteOffset":95472,
			"target":34963
		},
		{
			"buffer":0,
			"byteLength":1224,
			"byteOffset":95760,
			"target":34962
		},
		{
			"buffer":0,
			"byteLength":1224,
			"byteOffset":96984,
			"target":34962
		},
		{
			"buffer":0,
			"byteLength":816,
			"byteOffset":98208,
			"target":34962
		},
		{
			"buffer":0,
			"byteLength":300,
			"byteOffset":99024,
			"target":34963
		},
		{
			"buffer":0,
			"byteLength":11544,
			"byteOffset":99324,
			"target":34962
		},
		{
			"buffer":0,
			"byteLength":11544,
			"byteOffset":110868,
			"target":34962
		},
		{
			"buffer":0,
			"byteLength":7696,
			"byteOffset":122412,
			"target":34962
		},
		{
			"buffer":0,
			"byteLength":8808,
			"byteOffset":130108,
			"target":34963
		}
	],
	"samplers":[
		{
			"magFilter":9729,
			"minFilter":9987
		}
	],
	"buffers":[
		{
			"byteLength":138916,
			"uri":"house.bin"
		}
	]
}
