{
	"asset":{
		"generator":"Khronos glTF Blender I/O v4.5.51",
		"version":"2.0"
	},
	"scene":0,
	"scenes":[
		{
			"name":"Scene",
			"nodes":[
				1
			]
		}
	],
	"nodes":[
		{
			"mesh":0,
			"name":"KunaiMesh"
		},
		{
			"children":[
				0
			],
			"name":"Kunai"
		}
	],
	"materials":[
		{
			"doubleSided":true,
			"name":"steel",
			"normalTexture":{
				"index":0
			},
			"pbrMetallicRoughness":{
				"baseColorTexture":{
					"index":1
				},
				"metallicFactor":0.8500000238418579,
				"roughnessFactor":0.30000001192092896
			}
		},
		{
			"doubleSided":true,
			"name":"grip_wrap_595966",
			"normalTexture":{
				"index":2
			},
			"pbrMetallicRoughness":{
				"baseColorFactor":[
					0.10048151016235352,
					0.10048151016235352,
					0.13286831974983215,
					1
				],
				"baseColorTexture":{
					"index":3
				},
				"metallicFactor":0,
				"roughnessFactor":0.800000011920929
			}
		}
	],
	"meshes":[
		{
			"name":"KunaiMesh",
			"primitives":[
				{
					"attributes":{
						"POSITION":0,
						"NORMAL":1,
						"TEXCOORD_0":2
					},
					"indices":3,
					"material":0
				},
				{
					"attributes":{
						"POSITION":4,
						"NORMAL":5,
						"TEXCOORD_0":6
					},
					"indices":7,
					"material":1
				}
			]
		}
	],
	"textures":[
		{
			"sampler":0,
			"source":0
		},
		{
			"sampler":0,
			"source":1
		},
		{
			"sampler":0,
			"source":2
		},
		{
			"sampler":0,
			"source":3
		}
	],
	"images":[
		{
			"mimeType":"image/png",
			"name":"steel_normal.png",
			"uri":"../textures/steel_normal.png"
		},
		{
			"mimeType":"image/png",
			"name":"steel_albedo.png",
			"uri":"../textures/steel_albedo.png"
		},
		{
			"mimeType":"image/png",
			"name":"grip_wrap_normal.png",
			"uri":"../textures/grip_wrap_normal.png"
		},
		{
			"mimeType":"image/png",
			"name":"grip_wrap_albedo.png",
			"uri":"../textures/grip_wrap_albedo.png"
		}
	],
	"accessors":[
		{
			"bufferView":0,
			"componentType":5126,
			"count":244,
			"max":[
				0.035999998450279236,
				0.007199999876320362,
				0.1459999978542328
			],
			"min":[
				-0.035999998450279236,
				-0.007199999876320362,
				-0.17499999701976776
			],
			"type":"VEC3"
		},
		{
			"bufferView":1,
			"componentType":5126,
			"count":244,
			"type":"VEC3"
		},
		{
			"bufferView":2,
			"componentType":5126,
			"count":244,
			"type":"VEC2"
		},
		{
			"bufferView":3,
			"componentType":5123,
			"count":702,
			"type":"SCALAR"
		},
		{
			"bufferView":4,
			"componentType":5126,
			"count":48,
			"max":[
				0.010999999940395355,
				0.011000001803040504,
				0.10000000149011612
			],
			"min":[
				-0.010999999940395355,
				-0.011000001803040504,
				0
			],
			"type":"VEC3"
		},
		{
			"bufferView":5,
			"componentType":5126,
			"count":48,
			"type":"VEC3"
		},
		{
			"bufferView":6,
			"componentType":5126,
			"count":48,
			"type":"VEC2"
		},
		{
			"bufferView":7,
			"componentType":5123,
			"count":84,
			"type":"SCALAR"
		}
	],
	"bufferViews":[
		{
			"buffer":0,
			"byteLength":2928,
			"byteOffset":0,
			"target":34962
		},
		{
			"buffer":0,
			"byteLength":2928,
			"byteOffset":2928,
			"target":34962
		},
		{
			"buffer":0,
			"byteLength":1952,
			"byteOffset":5856,
			"target":34962
		},
		{
			"buffer":0,
			"byteLength":1404,
			"byteOffset":7808,
			"target":34963
		},
		{
			"buffer":0,
			"byteLength":576,
			"byteOffset":9212,
			"target":34962
		},
		{
			"buffer":0,
			"byteLength":576,
			"byteOffset":9788,
			"target":34962
		},
		{
			"buffer":0,
			"byteLength":384,
			"byteOffset":10364,
			"target":34962
		},
		{
			"buffer":0,
			"byteLength":168,
			"byteOffset":10748,
			"target":34963
		}
	],
	"samplers":[
		{
			"magFilter":9729,
			"minFilter":9987
		}
	],
	"buffers":[
		{
			"byteLength":10916,
			"uri":"kunai.bin"
		}
	]
}
