{
	"asset":{
		"generator":"Khronos glTF Blender I/O v4.5.51",
		"version":"2.0"
	},
	"scene":0,
	"scenes":[
		{
			"name":"Scene",
			"nodes":[
				1
			]
		}
	],
	"nodes":[
		{
			"mesh":0,
			"name":"LanternMesh"
		},
		{
			"children":[
				0
			],
			"name":"Lantern"
		}
	],
	"materials":[
		{
			"doubleSided":true,
			"name":"rock_10b10b104",
			"normalTexture":{
				"index":0
			},
			"pbrMetallicRoughness":{
				"baseColorTexture":{
					"index":1
				},
				"metallicFactor":0,
				"roughnessFactor":0.8999999761581421
			}
		},
		{
			"doubleSided":true,
			"emissiveFactor":[
				1,
				0.47699978947639465,
				0.11928018927574158
			],
			"name":"lantern_paper",
			"normalTexture":{
				"index":2
			},
			"pbrMetallicRoughness":{
				"baseColorTexture":{
					"index":3
				},
				"metallicFactor":0,
				"roughnessFactor":0.949999988079071
			}
		}
	],
	"meshes":[
		{
			"name":"LanternMesh",
			"primitives":[
				{
					"attributes":{
						"POSITION":0,
						"NORMAL":1,
						"TEXCOORD_0":2
					},
					"indices":3,
					"material":0
				},
				{
					"attributes":{
						"POSITION":4,
						"NORMAL":5,
						"TEXCOORD_0":6
					},
					"indices":7,
					"material":1
				}
			]
		}
	],
	"textures":[
		{
			"sampler":0,
			"source":0
		},
		{
			"sampler":0,
			"source":1
		},
		{
			"sampler":0,
			"source":2
		},
		{
			"sampler":0,
			"source":3
		}
	],
	"images":[
		{
			"mimeType":"image/png",
			"name":"rock_normal.png",
			"uri":"../textures/rock_normal.png"
		},
		{
			"mimeType":"image/png",
			"name":"rock_albedo.png",
			"uri":"../textures/rock_albedo.png"
		},
		{
			"mimeType":"image/png",
			"name":"shoji_normal.png",
			"uri":"../textures/shoji_normal.png"
		},
		{
			"mimeType":"image/png",
			"name":"shoji_albedo.png",
			"uri":"../textures/shoji_albedo.png"
		}
	],
	"accessors":[
		{
			"bufferView":0,
			"componentType":5126,
			"count":604,
			"max":[
				0.4399999976158142,
				1.8299999237060547,
				0.3810511827468872
			],
			"min":[
				-0.4399999976158142,
				0,
				-0.3810511827468872
			],
			"type":"VEC3"
		},
		{
			"bufferView":1,
			"componentType":5126,
			"count":604,
			"type":"VEC3"
		},
		{
			"bufferView":2,
			"componentType":5126,
			"count":604,
			"type":"VEC2"
		},
		{
			"bufferView":3,
			"componentType":5123,
			"count":1326,
			"type":"SCALAR"
		},
		{
			"bufferView":4,
			"componentType":5126,
			"count":72,
			"max":[
				0.2221243530511856,
				1.2950000762939453,
				0.2131858468055725
			],
			"min":[
				-0.2221243679523468,
				1.1050000190734863,
				-0.17154482007026672
			],
			"type":"VEC3"
		},
		{
			"bufferView":5,
			"componentType":5126,
			"count":72,
			"type":"VEC3"
		},
		{
			"bufferView":6,
			"componentType":5126,
			"count":72,
			"type":"VEC2"
		},
		{
			"bufferView":7,
			"componentType":5123,
			"count":108,
			"type":"SCALAR"
		}
	],
	"bufferViews":[
		{
			"buffer":0,
			"byteLength":7248,
			"byteOffset":0,
			"target":34962
		},
		{
			"buffer":0,
			"byteLength":7248,
			"byteOffset":7248,
			"target":34962
		},
		{
			"buffer":0,
			"byteLength":4832,
			"byteOffset":14496,
			"target":34962
		},
		{
			"buffer":0,
			"byteLength":2652,
			"byteOffset":19328,
			"target":34963
		},
		{
			"buffer":0,
			"byteLength":864,
			"byteOffset":21980,
			"target":34962
		},
		{
			"buffer":0,
			"byteLength":864,
			"byteOffset":22844,
			"target":34962
		},
		{
			"buffer":0,
			"byteLength":576,
			"byteOffset":23708,
			"target":34962
		},
		{
			"buffer":0,
			"byteLength":216,
			"byteOffset":24284,
			"target":34963
		}
	],
	"samplers":[
		{
			"magFilter":9729,
			"minFilter":9987
		}
	],
	"buffers":[
		{
			"byteLength":24500,
			"uri":"lantern.bin"
		}
	]
}
