{
	"asset":{
		"generator":"Khronos glTF Blender I/O v4.5.51",
		"version":"2.0"
	},
	"scene":0,
	"scenes":[
		{
			"name":"Scene",
			"nodes":[
				1
			]
		}
	],
	"nodes":[
		{
			"mesh":0,
			"name":"MapleMesh"
		},
		{
			"children":[
				0
			],
			"name":"Maple"
		}
	],
	"materials":[
		{
			"doubleSided":true,
			"name":"bark",
			"normalTexture":{
				"index":0
			},
			"pbrMetallicRoughness":{
				"baseColorTexture":{
					"index":1
				},
				"metallicFactor":0,
				"roughnessFactor":0.949999988079071
			}
		},
		{
			"doubleSided":true,
			"name":"maple",
			"normalTexture":{
				"index":2
			},
			"pbrMetallicRoughness":{
				"baseColorTexture":{
					"index":3
				},
				"metallicFactor":0,
				"roughnessFactor":0.8999999761581421
			}
		}
	],
	"meshes":[
		{
			"name":"MapleMesh",
			"primitives":[
				{
					"attributes":{
						"POSITION":0,
						"NORMAL":1,
						"TEXCOORD_0":2
					},
					"indices":3,
					"material":0
				},
				{
					"attributes":{
						"POSITION":4,
						"NORMAL":5,
						"TEXCOORD_0":6
					},
					"indices":7,
					"material":1
				}
			]
		}
	],
	"textures":[
		{
			"sampler":0,
			"source":0
		},
		{
			"sampler":0,
			"source":1
		},
		{
			"sampler":0,
			"source":2
		},
		{
			"sampler":0,
			"source":3
		}
	],
	"images":[
		{
			"mimeType":"image/png",
			"name":"bark_normal.png",
			"uri":"../textures/bark_normal.png"
		},
		{
			"mimeType":"image/png",
			"name":"bark_albedo.png",
			"uri":"../textures/bark_albedo.png"
		},
		{
			"mimeType":"image/png",
			"name":"maple_normal.png",
			"uri":"../textures/maple_normal.png"
		},
		{
			"mimeType":"image/png",
			"name":"maple_albedo.png",
			"uri":"../textures/maple_albedo.png"
		}
	],
	"accessors":[
		{
			"bufferView":0,
			"componentType":5126,
			"count":404,
			"max":[
				1.3032376766204834,
				3.4870846271514893,
				1.2618632316589355
			],
			"min":[
				-0.920925498008728,
				-0.10852289944887161,
				-0.966702938079834
			],
			"type":"VEC3"
		},
		{
			"bufferView":1,
			"componentType":5126,
			"count":404,
			"type":"VEC3"
		},
		{
			"bufferView":2,
			"componentType":5126,
			"count":404,
			"type":"VEC2"
		},
		{
			"bufferView":3,
			"componentType":5123,
			"count":876,
			"type":"SCALAR"
		},
		{
			"bufferView":4,
			"componentType":5126,
			"count":4486,
			"max":[
				2.5249111652374268,
				4.923608779907227,
				2.537961721420288
			],
			"min":[
				-2.275533437728882,
				2.0347330570220947,
				-2.2953574657440186
			],
			"type":"VEC3"
		},
		{
			"bufferView":5,
			"componentType":5126,
			"count":4486,
			"type":"VEC3"
		},
		{
			"bufferView":6,
			"componentType":5126,
			"count":4486,
			"type":"VEC2"
		},
		{
			"bufferView":7,
			"componentType":5123,
			"count":12480,
			"type":"SCALAR"
		}
	],
	"bufferViews":[
		{
			"buffer":0,
			"byteLength":4848,
			"byteOffset":0,
			"target":34962
		},
		{
			"buffer":0,
			"byteLength":4848,
			"byteOffset":4848,
			"target":34962
		},
		{
			"buffer":0,
			"byteLength":3232,
			"byteOffset":9696,
			"target":34962
		},
		{
			"buffer":0,
			"byteLength":1752,
			"byteOffset":12928,
			"target":34963
		},
		{
			"buffer":0,
			"byteLength":53832,
			"byteOffset":14680,
			"target":34962
		},
		{
			"buffer":0,
			"byteLength":53832,
			"byteOffset":68512,
			"target":34962
		},
		{
			"buffer":0,
			"byteLength":35888,
			"byteOffset":122344,
			"target":34962
		},
		{
			"buffer":0,
			"byteLength":24960,
			"byteOffset":158232,
			"target":34963
		}
	],
	"samplers":[
		{
			"magFilter":9729,
			"minFilter":9987
		}
	],
	"buffers":[
		{
			"byteLength":183192,
			"uri":"maple.bin"
		}
	]
}
