{
	"asset":{
		"generator":"Khronos glTF Blender I/O v4.5.51",
		"version":"2.0"
	},
	"scene":0,
	"scenes":[
		{
			"name":"Scene",
			"nodes":[
				1
			]
		}
	],
	"nodes":[
		{
			"mesh":0,
			"name":"NinjatoMesh"
		},
		{
			"children":[
				0
			],
			"name":"Ninjato"
		}
	],
	"materials":[
		{
			"doubleSided":true,
			"name":"black_lacquer",
			"normalTexture":{
				"index":0
			},
			"pbrMetallicRoughness":{
				"baseColorTexture":{
					"index":1
				},
				"metallicFactor":0,
				"roughnessFactor":0.44999998807907104
			}
		},
		{
			"doubleSided":true,
			"name":"steel_8c8c93",
			"normalTexture":{
				"index":2
			},
			"pbrMetallicRoughness":{
				"baseColorFactor":[
					0.2632734179496765,
					0.2632734179496765,
					0.295699805021286,
					1
				],
				"baseColorTexture":{
					"index":3
				},
				"metallicFactor":0.8500000238418579,
				"roughnessFactor":0.30000001192092896
			}
		},
		{
			"doubleSided":true,
			"name":"grip_wrap",
			"normalTexture":{
				"index":4
			},
			"pbrMetallicRoughness":{
				"baseColorTexture":{
					"index":5
				},
				"metallicFactor":0,
				"roughnessFactor":0.800000011920929
			}
		},
		{
			"doubleSided":true,
			"name":"leather_1988c72",
			"normalTexture":{
				"index":6
			},
			"pbrMetallicRoughness":{
				"baseColorFactor":[
					1,
					0.2632734179496765,
					0.17064493894577026,
					1
				],
				"baseColorTexture":{
					"index":7
				},
				"metallicFactor":0,
				"roughnessFactor":0.800000011920929
			}
		}
	],
	"meshes":[
		{
			"name":"NinjatoMesh",
			"primitives":[
				{
					"attributes":{
						"POSITION":0,
						"NORMAL":1,
						"TEXCOORD_0":2
					},
					"indices":3,
					"material":0
				},
				{
					"attributes":{
						"POSITION":4,
						"NORMAL":5,
						"TEXCOORD_0":6
					},
					"indices":7,
					"material":1
				},
				{
					"attributes":{
						"POSITION":8,
						"NORMAL":9,
						"TEXCOORD_0":10
					},
					"indices":11,
					"material":2
				},
				{
					"attributes":{
						"POSITION":12,
						"NORMAL":13,
						"TEXCOORD_0":14
					},
					"indices":15,
					"material":3
				}
			]
		}
	],
	"textures":[
		{
			"sampler":0,
			"source":0
		},
		{
			"sampler":0,
			"source":1
		},
		{
			"sampler":0,
			"source":2
		},
		{
			"sampler":0,
			"source":3
		},
		{
			"sampler":0,
			"source":4
		},
		{
			"sampler":0,
			"source":5
		},
		{
			"sampler":0,
			"source":6
		},
		{
			"sampler":0,
			"source":7
		}
	],
	"images":[
		{
			"mimeType":"image/png",
			"name":"black_lacquer_normal.png",
			"uri":"../textures/black_lacquer_normal.png"
		},
		{
			"mimeType":"image/png",
			"name":"black_lacquer_albedo.png",
			"uri":"../textures/black_lacquer_albedo.png"
		},
		{
			"mimeType":"image/png",
			"name":"steel_normal.png",
			"uri":"../textures/steel_normal.png"
		},
		{
			"mimeType":"image/png",
			"name":"steel_albedo.png",
			"uri":"../textures/steel_albedo.png"
		},
		{
			"mimeType":"image/png",
			"name":"grip_wrap_normal.png",
			"uri":"../textures/grip_wrap_normal.png"
		},
		{
			"mimeType":"image/png",
			"name":"grip_wrap_albedo.png",
			"uri":"../textures/grip_wrap_albedo.png"
		},
		{
			"mimeType":"image/png",
			"name":"leather_normal.png",
			"uri":"../textures/leather_normal.png"
		},
		{
			"mimeType":"image/png",
			"name":"leather_albedo.png",
			"uri":"../textures/leather_albedo.png"
		}
	],
	"accessors":[
		{
			"bufferView":0,
			"componentType":5126,
			"count":384,
			"max":[
				0.02800000086426735,
				0.4259999990463257,
				0.01899999938905239
			],
			"min":[
				-0.02800000086426735,
				-0.5049999952316284,
				-0.01899999938905239
			],
			"type":"VEC3"
		},
		{
			"bufferView":1,
			"componentType":5126,
			"count":384,
			"type":"VEC3"
		},
		{
			"bufferView":2,
			"componentType":5126,
			"count":384,
			"type":"VEC2"
		},
		{
			"bufferView":3,
			"componentType":5123,
			"count":1296,
			"type":"SCALAR"
		},
		{
			"bufferView":4,
			"componentType":5126,
			"count":96,
			"max":[
				0.04500000178813934,
				0.17100000381469727,
				0.03750000149011612
			],
			"min":[
				-0.04500000178813934,
				0.15900000929832458,
				-0.03750000149011612
			],
			"type":"VEC3"
		},
		{
			"bufferView":5,
			"componentType":5126,
			"count":96,
			"type":"VEC3"
		},
		{
			"bufferView":6,
			"componentType":5126,
			"count":96,
			"type":"VEC2"
		},
		{
			"bufferView":7,
			"componentType":5123,
			"count":324,
			"type":"SCALAR"
		},
		{
			"bufferView":8,
			"componentType":5126,
			"count":96,
			"max":[
				0.017000000923871994,
				0.4050000011920929,
				0.013500000350177288
			],
			"min":[
				-0.017000000923871994,
				0.17499998211860657,
				-0.013500000350177288
			],
			"type":"VEC3"
		},
		{
			"bufferView":9,
			"componentType":5126,
			"count":96,
			"type":"VEC3"
		},
		{
			"bufferView":10,
			"componentType":5126,
			"count":96,
			"type":"VEC2"
		},
		{
			"bufferView":11,
			"componentType":5123,
			"count":324,
			"type":"SCALAR"
		},
		{
			"bufferView":12,
			"componentType":5126,
			"count":72,
			"max":[
				0.05594445765018463,
				0.1020660325884819,
				0.03546219691634178
			],
			"min":[
				0.020445145666599274,
				-0.08239973336458206,
				0.014461537823081017
			],
			"type":"VEC3"
		},
		{
			"bufferView":13,
			"componentType":5126,
			"count":72,
			"type":"VEC3"
		},
		{
			"bufferView":14,
			"componentType":5126,
			"count":72,
			"type":"VEC2"
		},
		{
			"bufferView":15,
			"componentType":5123,
			"count":108,
			"type":"SCALAR"
		}
	],
	"bufferViews":[
		{
			"buffer":0,
			"byteLength":4608,
			"byteOffset":0,
			"target":34962
		},
		{
			"buffer":0,
			"byteLength":4608,
			"byteOffset":4608,
			"target":34962
		},
		{
			"buffer":0,
			"byteLength":3072,
			"byteOffset":9216,
			"target":34962
		},
		{
			"buffer":0,
			"byteLength":2592,
			"byteOffset":12288,
			"target":34963
		},
		{
			"buffer":0,
			"byteLength":1152,
			"byteOffset":14880,
			"target":34962
		},
		{
			"buffer":0,
			"byteLength":1152,
			"byteOffset":16032,
			"target":34962
		},
		{
			"buffer":0,
			"byteLength":768,
			"byteOffset":17184,
			"target":34962
		},
		{
			"buffer":0,
			"byteLength":648,
			"byteOffset":17952,
			"target":34963
		},
		{
			"buffer":0,
			"byteLength":1152,
			"byteOffset":18600,
			"target":34962
		},
		{
			"buffer":0,
			"byteLength":1152,
			"byteOffset":19752,
			"target":34962
		},
		{
			"buffer":0,
			"byteLength":768,
			"byteOffset":20904,
			"target":34962
		},
		{
			"buffer":0,
			"byteLength":648,
			"byteOffset":21672,
			"target":34963
		},
		{
			"buffer":0,
			"byteLength":864,
			"byteOffset":22320,
			"target":34962
		},
		{
			"buffer":0,
			"byteLength":864,
			"byteOffset":23184,
			"target":34962
		},
		{
			"buffer":0,
			"byteLength":576,
			"byteOffset":24048,
			"target":34962
		},
		{
			"buffer":0,
			"byteLength":216,
			"byteOffset":24624,
			"target":34963
		}
	],
	"samplers":[
		{
			"magFilter":9729,
			"minFilter":9987
		}
	],
	"buffers":[
		{
			"byteLength":24840,
			"uri":"ninjato.bin"
		}
	]
}
