{
	"asset":{
		"generator":"Khronos glTF Blender I/O v4.5.51",
		"version":"2.0"
	},
	"scene":0,
	"scenes":[
		{
			"name":"Scene",
			"nodes":[
				1
			]
		}
	],
	"nodes":[
		{
			"mesh":0,
			"name":"PillarMesh"
		},
		{
			"children":[
				0
			],
			"name":"Pillar"
		}
	],
	"materials":[
		{
			"doubleSided":true,
			"name":"stone_blocks",
			"normalTexture":{
				"index":0
			},
			"pbrMetallicRoughness":{
				"baseColorTexture":{
					"index":1
				},
				"metallicFactor":0,
				"roughnessFactor":0.8999999761581421
			}
		},
		{
			"doubleSided":true,
			"name":"rock",
			"normalTexture":{
				"index":2
			},
			"pbrMetallicRoughness":{
				"baseColorTexture":{
					"index":3
				},
				"metallicFactor":0,
				"roughnessFactor":0.8999999761581421
			}
		}
	],
	"meshes":[
		{
			"name":"PillarMesh",
			"primitives":[
				{
					"attributes":{
						"POSITION":0,
						"NORMAL":1,
						"TEXCOORD_0":2
					},
					"indices":3,
					"material":0
				},
				{
					"attributes":{
						"POSITION":4,
						"NORMAL":5,
						"TEXCOORD_0":6
					},
					"indices":7,
					"material":1
				}
			]
		}
	],
	"textures":[
		{
			"sampler":0,
			"source":0
		},
		{
			"sampler":0,
			"source":1
		},
		{
			"sampler":0,
			"source":2
		},
		{
			"sampler":0,
			"source":3
		}
	],
	"images":[
		{
			"mimeType":"image/png",
			"name":"stone_blocks_normal.png",
			"uri":"../textures/stone_blocks_normal.png"
		},
		{
			"mimeType":"image/png",
			"name":"stone_blocks_albedo.png",
			"uri":"../textures/stone_blocks_albedo.png"
		},
		{
			"mimeType":"image/png",
			"name":"rock_normal.png",
			"uri":"../textures/rock_normal.png"
		},
		{
			"mimeType":"image/png",
			"name":"rock_albedo.png",
			"uri":"../textures/rock_albedo.png"
		}
	],
	"accessors":[
		{
			"bufferView":0,
			"componentType":5126,
			"count":618,
			"max":[
				0.8500000238418579,
				6,
				0.8500000238418579
			],
			"min":[
				-0.8500000238418579,
				0,
				-0.8500000238418579
			],
			"type":"VEC3"
		},
		{
			"bufferView":1,
			"componentType":5126,
			"count":618,
			"type":"VEC3"
		},
		{
			"bufferView":2,
			"componentType":5126,
			"count":618,
			"type":"VEC2"
		},
		{
			"bufferView":3,
			"componentType":5123,
			"count":1968,
			"type":"SCALAR"
		},
		{
			"bufferView":4,
			"componentType":5126,
			"count":194,
			"max":[
				0.7200000286102295,
				6.300000190734863,
				0.7200000286102295
			],
			"min":[
				-0.7200000286102295,
				0.6000000238418579,
				-0.7200000286102295
			],
			"type":"VEC3"
		},
		{
			"bufferView":5,
			"componentType":5126,
			"count":194,
			"type":"VEC3"
		},
		{
			"bufferView":6,
			"componentType":5126,
			"count":194,
			"type":"VEC2"
		},
		{
			"bufferView":7,
			"componentType":5123,
			"count":540,
			"type":"SCALAR"
		}
	],
	"bufferViews":[
		{
			"buffer":0,
			"byteLength":7416,
			"byteOffset":0,
			"target":34962
		},
		{
			"buffer":0,
			"byteLength":7416,
			"byteOffset":7416,
			"target":34962
		},
		{
			"buffer":0,
			"byteLength":4944,
			"byteOffset":14832,
			"target":34962
		},
		{
			"buffer":0,
			"byteLength":3936,
			"byteOffset":19776,
			"target":34963
		},
		{
			"buffer":0,
			"byteLength":2328,
			"byteOffset":23712,
			"target":34962
		},
		{
			"buffer":0,
			"byteLength":2328,
			"byteOffset":26040,
			"target":34962
		},
		{
			"buffer":0,
			"byteLength":1552,
			"byteOffset":28368,
			"target":34962
		},
		{
			"buffer":0,
			"byteLength":1080,
			"byteOffset":29920,
			"target":34963
		}
	],
	"samplers":[
		{
			"magFilter":9729,
			"minFilter":9987
		}
	],
	"buffers":[
		{
			"byteLength":31000,
			"uri":"pillar.bin"
		}
	]
}
