{
	"asset":{
		"generator":"Khronos glTF Blender I/O v4.5.51",
		"version":"2.0"
	},
	"scene":0,
	"scenes":[
		{
			"name":"Scene",
			"nodes":[
				1
			]
		}
	],
	"nodes":[
		{
			"mesh":0,
			"name":"PineMesh"
		},
		{
			"children":[
				0
			],
			"name":"Pine"
		}
	],
	"materials":[
		{
			"doubleSided":true,
			"name":"bark",
			"normalTexture":{
				"index":0
			},
			"pbrMetallicRoughness":{
				"baseColorTexture":{
					"index":1
				},
				"metallicFactor":0,
				"roughnessFactor":0.949999988079071
			}
		},
		{
			"doubleSided":true,
			"name":"pine_needles",
			"normalTexture":{
				"index":2
			},
			"pbrMetallicRoughness":{
				"baseColorTexture":{
					"index":3
				},
				"metallicFactor":0,
				"roughnessFactor":0.8999999761581421
			}
		}
	],
	"meshes":[
		{
			"name":"PineMesh",
			"primitives":[
				{
					"attributes":{
						"POSITION":0,
						"NORMAL":1,
						"TEXCOORD_0":2
					},
					"indices":3,
					"material":0
				},
				{
					"attributes":{
						"POSITION":4,
						"NORMAL":5,
						"TEXCOORD_0":6
					},
					"indices":7,
					"material":1
				}
			]
		}
	],
	"textures":[
		{
			"sampler":0,
			"source":0
		},
		{
			"sampler":0,
			"source":1
		},
		{
			"sampler":0,
			"source":2
		},
		{
			"sampler":0,
			"source":3
		}
	],
	"images":[
		{
			"mimeType":"image/png",
			"name":"bark_normal.png",
			"uri":"../textures/bark_normal.png"
		},
		{
			"mimeType":"image/png",
			"name":"bark_albedo.png",
			"uri":"../textures/bark_albedo.png"
		},
		{
			"mimeType":"image/png",
			"name":"pine_needles_normal.png",
			"uri":"../textures/pine_needles_normal.png"
		},
		{
			"mimeType":"image/png",
			"name":"pine_needles_albedo.png",
			"uri":"../textures/pine_needles_albedo.png"
		}
	],
	"accessors":[
		{
			"bufferView":0,
			"componentType":5126,
			"count":230,
			"max":[
				0.460326611995697,
				3.200000047683716,
				0.4163163900375366
			],
			"min":[
				-0.43712204694747925,
				-0.1228623166680336,
				-0.458223819732666
			],
			"type":"VEC3"
		},
		{
			"bufferView":1,
			"componentType":5126,
			"count":230,
			"type":"VEC3"
		},
		{
			"bufferView":2,
			"componentType":5126,
			"count":230,
			"type":"VEC2"
		},
		{
			"bufferView":3,
			"componentType":5123,
			"count":432,
			"type":"SCALAR"
		},
		{
			"bufferView":4,
			"componentType":5126,
			"count":927,
			"max":[
				1.8506721258163452,
				5.650000095367432,
				2.049743175506592
			],
			"min":[
				-2.0822083950042725,
				0.7290737628936768,
				-2.013848066329956
			],
			"type":"VEC3"
		},
		{
			"bufferView":5,
			"componentType":5126,
			"count":927,
			"type":"VEC3"
		},
		{
			"bufferView":6,
			"componentType":5126,
			"count":927,
			"type":"VEC2"
		},
		{
			"bufferView":7,
			"componentType":5123,
			"count":1890,
			"type":"SCALAR"
		}
	],
	"bufferViews":[
		{
			"buffer":0,
			"byteLength":2760,
			"byteOffset":0,
			"target":34962
		},
		{
			"buffer":0,
			"byteLength":2760,
			"byteOffset":2760,
			"target":34962
		},
		{
			"buffer":0,
			"byteLength":1840,
			"byteOffset":5520,
			"target":34962
		},
		{
			"buffer":0,
			"byteLength":864,
			"byteOffset":7360,
			"target":34963
		},
		{
			"buffer":0,
			"byteLength":11124,
			"byteOffset":8224,
			"target":34962
		},
		{
			"buffer":0,
			"byteLength":11124,
			"byteOffset":19348,
			"target":34962
		},
		{
			"buffer":0,
			"byteLength":7416,
			"byteOffset":30472,
			"target":34962
		},
		{
			"buffer":0,
			"byteLength":3780,
			"byteOffset":37888,
			"target":34963
		}
	],
	"samplers":[
		{
			"magFilter":9729,
			"minFilter":9987
		}
	],
	"buffers":[
		{
			"byteLength":41668,
			"uri":"pine.bin"
		}
	]
}
