{
	"asset":{
		"generator":"Khronos glTF Blender I/O v4.5.51",
		"version":"2.0"
	},
	"scene":0,
	"scenes":[
		{
			"name":"Scene",
			"nodes":[
				1
			]
		}
	],
	"nodes":[
		{
			"mesh":0,
			"name":"PouchMesh"
		},
		{
			"children":[
				0
			],
			"name":"Pouch"
		}
	],
	"materials":[
		{
			"doubleSided":true,
			"name":"leather",
			"normalTexture":{
				"index":0
			},
			"pbrMetallicRoughness":{
				"baseColorTexture":{
					"index":1
				},
				"metallicFactor":0,
				"roughnessFactor":0.800000011920929
			}
		},
		{
			"doubleSided":true,
			"name":"leather_998c7f",
			"normalTexture":{
				"index":2
			},
			"pbrMetallicRoughness":{
				"baseColorFactor":[
					0.31854677200317383,
					0.2632734179496765,
					0.21404114365577698,
					1
				],
				"baseColorTexture":{
					"index":3
				},
				"metallicFactor":0,
				"roughnessFactor":0.800000011920929
			}
		},
		{
			"doubleSided":true,
			"name":"steel",
			"normalTexture":{
				"index":4
			},
			"pbrMetallicRoughness":{
				"baseColorTexture":{
					"index":5
				},
				"metallicFactor":0.8500000238418579,
				"roughnessFactor":0.30000001192092896
			}
		}
	],
	"meshes":[
		{
			"name":"PouchMesh",
			"primitives":[
				{
					"attributes":{
						"POSITION":0,
						"NORMAL":1,
						"TEXCOORD_0":2
					},
					"indices":3,
					"material":0
				},
				{
					"attributes":{
						"POSITION":4,
						"NORMAL":5,
						"TEXCOORD_0":6
					},
					"indices":7,
					"material":1
				},
				{
					"attributes":{
						"POSITION":8,
						"NORMAL":9,
						"TEXCOORD_0":10
					},
					"indices":11,
					"material":2
				}
			]
		}
	],
	"textures":[
		{
			"sampler":0,
			"source":0
		},
		{
			"sampler":0,
			"source":1
		},
		{
			"sampler":0,
			"source":0
		},
		{
			"sampler":0,
			"source":1
		},
		{
			"sampler":0,
			"source":2
		},
		{
			"sampler":0,
			"source":3
		}
	],
	"images":[
		{
			"mimeType":"image/png",
			"name":"leather_normal.png",
			"uri":"../textures/leather_normal.png"
		},
		{
			"mimeType":"image/png",
			"name":"leather_albedo.png",
			"uri":"../textures/leather_albedo.png"
		},
		{
			"mimeType":"image/png",
			"name":"steel_normal.png",
			"uri":"../textures/steel_normal.png"
		},
		{
			"mimeType":"image/png",
			"name":"steel_albedo.png",
			"uri":"../textures/steel_albedo.png"
		}
	],
	"accessors":[
		{
			"bufferView":0,
			"componentType":5126,
			"count":96,
			"max":[
				0.05000000074505806,
				0.05999999865889549,
				0.027499999850988388
			],
			"min":[
				-0.05000000074505806,
				-0.05999999865889549,
				-0.027499999850988388
			],
			"type":"VEC3"
		},
		{
			"bufferView":1,
			"componentType":5126,
			"count":96,
			"type":"VEC3"
		},
		{
			"bufferView":2,
			"componentType":5126,
			"count":96,
			"type":"VEC2"
		},
		{
			"bufferView":3,
			"componentType":5123,
			"count":324,
			"type":"SCALAR"
		},
		{
			"bufferView":4,
			"componentType":5126,
			"count":264,
			"max":[
				0.05299999937415123,
				0.07000000029802322,
				0.036000002175569534
			],
			"min":[
				-0.05299999937415123,
				-0.030000001192092896,
				-0.03399999812245369
			],
			"type":"VEC3"
		},
		{
			"bufferView":5,
			"componentType":5126,
			"count":264,
			"type":"VEC3"
		},
		{
			"bufferView":6,
			"componentType":5126,
			"count":264,
			"type":"VEC2"
		},
		{
			"bufferView":7,
			"componentType":5123,
			"count":720,
			"type":"SCALAR"
		},
		{
			"bufferView":8,
			"componentType":5126,
			"count":42,
			"max":[
				0.007608452811837196,
				0.019999999552965164,
				0.03800000250339508
			],
			"min":[
				-0.007608452811837196,
				0.003999999724328518,
				0.03199999779462814
			],
			"type":"VEC3"
		},
		{
			"bufferView":9,
			"componentType":5126,
			"count":42,
			"type":"VEC3"
		},
		{
			"bufferView":10,
			"componentType":5126,
			"count":42,
			"type":"VEC2"
		},
		{
			"bufferView":11,
			"componentType":5123,
			"count":108,
			"type":"SCALAR"
		}
	],
	"bufferViews":[
		{
			"buffer":0,
			"byteLength":1152,
			"byteOffset":0,
			"target":34962
		},
		{
			"buffer":0,
			"byteLength":1152,
			"byteOffset":1152,
			"target":34962
		},
		{
			"buffer":0,
			"byteLength":768,
			"byteOffset":2304,
			"target":34962
		},
		{
			"buffer":0,
			"byteLength":648,
			"byteOffset":3072,
			"target":34963
		},
		{
			"buffer":0,
			"byteLength":3168,
			"byteOffset":3720,
			"target":34962
		},
		{
			"buffer":0,
			"byteLength":3168,
			"byteOffset":6888,
			"target":34962
		},
		{
			"buffer":0,
			"byteLength":2112,
			"byteOffset":10056,
			"target":34962
		},
		{
			"buffer":0,
			"byteLength":1440,
			"byteOffset":12168,
			"target":34963
		},
		{
			"buffer":0,
			"byteLength":504,
			"byteOffset":13608,
			"target":34962
		},
		{
			"buffer":0,
			"byteLength":504,
			"byteOffset":14112,
			"target":34962
		},
		{
			"buffer":0,
			"byteLength":336,
			"byteOffset":14616,
			"target":34962
		},
		{
			"buffer":0,
			"byteLength":216,
			"byteOffset":14952,
			"target":34963
		}
	],
	"samplers":[
		{
			"magFilter":9729,
			"minFilter":9987
		}
	],
	"buffers":[
		{
			"byteLength":15168,
			"uri":"pouch.bin"
		}
	]
}
