{
	"asset":{
		"generator":"Khronos glTF Blender I/O v4.5.51",
		"version":"2.0"
	},
	"scene":0,
	"scenes":[
		{
			"name":"Scene",
			"nodes":[
				1
			]
		}
	],
	"nodes":[
		{
			"mesh":0,
			"name":"RockMesh"
		},
		{
			"children":[
				0
			],
			"name":"Rock"
		}
	],
	"materials":[
		{
			"doubleSided":true,
			"name":"rock",
			"normalTexture":{
				"index":0
			},
			"pbrMetallicRoughness":{
				"baseColorTexture":{
					"index":1
				},
				"metallicFactor":0,
				"roughnessFactor":0.8999999761581421
			}
		},
		{
			"doubleSided":true,
			"name":"grass_bfd8a5",
			"normalTexture":{
				"index":2
			},
			"pbrMetallicRoughness":{
				"baseColorFactor":[
					0.5225215554237366,
					0.6920710802078247,
					0.38005632162094116,
					1
				],
				"baseColorTexture":{
					"index":3
				},
				"metallicFactor":0,
				"roughnessFactor":0.949999988079071
			}
		}
	],
	"meshes":[
		{
			"name":"RockMesh",
			"primitives":[
				{
					"attributes":{
						"POSITION":0,
						"NORMAL":1,
						"TEXCOORD_0":2
					},
					"indices":3,
					"material":0
				},
				{
					"attributes":{
						"POSITION":4,
						"NORMAL":5,
						"TEXCOORD_0":6
					},
					"indices":7,
					"material":1
				}
			]
		}
	],
	"textures":[
		{
			"sampler":0,
			"source":0
		},
		{
			"sampler":0,
			"source":1
		},
		{
			"sampler":0,
			"source":2
		},
		{
			"sampler":0,
			"source":3
		}
	],
	"images":[
		{
			"mimeType":"image/png",
			"name":"rock_normal.png",
			"uri":"../textures/rock_normal.png"
		},
		{
			"mimeType":"image/png",
			"name":"rock_albedo.png",
			"uri":"../textures/rock_albedo.png"
		},
		{
			"mimeType":"image/png",
			"name":"grass_normal.png",
			"uri":"../textures/grass_normal.png"
		},
		{
			"mimeType":"image/png",
			"name":"grass_albedo.png",
			"uri":"../textures/grass_albedo.png"
		}
	],
	"accessors":[
		{
			"bufferView":0,
			"componentType":5126,
			"count":1550,
			"max":[
				1.1443747282028198,
				0.9579258561134338,
				0.7953191995620728
			],
			"min":[
				-0.9400938749313354,
				-0.03243397921323776,
				-0.7205340266227722
			],
			"type":"VEC3"
		},
		{
			"bufferView":1,
			"componentType":5126,
			"count":1550,
			"type":"VEC3"
		},
		{
			"bufferView":2,
			"componentType":5126,
			"count":1550,
			"type":"VEC2"
		},
		{
			"bufferView":3,
			"componentType":5123,
			"count":4110,
			"type":"SCALAR"
		},
		{
			"bufferView":4,
			"componentType":5126,
			"count":283,
			"max":[
				1.012736201286316,
				0.9579258561134338,
				0.7258391976356506
			],
			"min":[
				-0.9400938749313354,
				0.179732084274292,
				-0.6645934581756592
			],
			"type":"VEC3"
		},
		{
			"bufferView":5,
			"componentType":5126,
			"count":283,
			"type":"VEC3"
		},
		{
			"bufferView":6,
			"componentType":5126,
			"count":283,
			"type":"VEC2"
		},
		{
			"bufferView":7,
			"componentType":5123,
			"count":690,
			"type":"SCALAR"
		}
	],
	"bufferViews":[
		{
			"buffer":0,
			"byteLength":18600,
			"byteOffset":0,
			"target":34962
		},
		{
			"buffer":0,
			"byteLength":18600,
			"byteOffset":18600,
			"target":34962
		},
		{
			"buffer":0,
			"byteLength":12400,
			"byteOffset":37200,
			"target":34962
		},
		{
			"buffer":0,
			"byteLength":8220,
			"byteOffset":49600,
			"target":34963
		},
		{
			"buffer":0,
			"byteLength":3396,
			"byteOffset":57820,
			"target":34962
		},
		{
			"buffer":0,
			"byteLength":3396,
			"byteOffset":61216,
			"target":34962
		},
		{
			"buffer":0,
			"byteLength":2264,
			"byteOffset":64612,
			"target":34962
		},
		{
			"buffer":0,
			"byteLength":1380,
			"byteOffset":66876,
			"target":34963
		}
	],
	"samplers":[
		{
			"magFilter":9729,
			"minFilter":9987
		}
	],
	"buffers":[
		{
			"byteLength":68256,
			"uri":"rock.bin"
		}
	]
}
