{
	"asset":{
		"generator":"Khronos glTF Blender I/O v4.5.51",
		"version":"2.0"
	},
	"scene":0,
	"scenes":[
		{
			"name":"Scene",
			"nodes":[
				1
			]
		}
	],
	"nodes":[
		{
			"mesh":0,
			"name":"ShrineMesh"
		},
		{
			"children":[
				0
			],
			"name":"Shrine"
		}
	],
	"materials":[
		{
			"doubleSided":true,
			"name":"stone_blocks",
			"normalTexture":{
				"index":0
			},
			"pbrMetallicRoughness":{
				"baseColorTexture":{
					"index":1
				},
				"metallicFactor":0,
				"roughnessFactor":0.8999999761581421
			}
		},
		{
			"doubleSided":true,
			"name":"wood_dark",
			"normalTexture":{
				"index":2
			},
			"pbrMetallicRoughness":{
				"baseColorTexture":{
					"index":3
				},
				"metallicFactor":0,
				"roughnessFactor":0.800000011920929
			}
		},
		{
			"doubleSided":true,
			"name":"wood",
			"normalTexture":{
				"index":4
			},
			"pbrMetallicRoughness":{
				"baseColorTexture":{
					"index":5
				},
				"metallicFactor":0,
				"roughnessFactor":0.8500000238418579
			}
		},
		{
			"doubleSided":true,
			"name":"red_lacquer",
			"normalTexture":{
				"index":6
			},
			"pbrMetallicRoughness":{
				"baseColorTexture":{
					"index":7
				},
				"metallicFactor":0,
				"roughnessFactor":0.44999998807907104
			}
		},
		{
			"doubleSided":true,
			"name":"shoji_b7997a",
			"normalTexture":{
				"index":8
			},
			"pbrMetallicRoughness":{
				"baseColorFactor":[
					0.47699978947639465,
					0.31854677200317383,
					0.19599418342113495,
					1
				],
				"baseColorTexture":{
					"index":9
				},
				"metallicFactor":0,
				"roughnessFactor":0.949999988079071
			}
		},
		{
			"doubleSided":true,
			"name":"roof_tiles_9ef2cc",
			"normalTexture":{
				"index":10
			},
			"pbrMetallicRoughness":{
				"baseColorFactor":[
					0.34239163994789124,
					0.8900054097175598,
					0.6038273572921753,
					1
				],
				"baseColorTexture":{
					"index":11
				},
				"metallicFactor":0,
				"roughnessFactor":0.699999988079071
			}
		},
		{
			"doubleSided":true,
			"name":"straw",
			"normalTexture":{
				"index":12
			},
			"pbrMetallicRoughness":{
				"baseColorTexture":{
					"index":13
				},
				"metallicFactor":0,
				"roughnessFactor":0.949999988079071
			}
		},
		{
			"doubleSided":true,
			"name":"plaster_10b10b10b",
			"normalTexture":{
				"index":14
			},
			"pbrMetallicRoughness":{
				"baseColorTexture":{
					"index":15
				},
				"metallicFactor":0,
				"roughnessFactor":0.949999988079071
			}
		}
	],
	"meshes":[
		{
			"name":"ShrineMesh",
			"primitives":[
				{
					"attributes":{
						"POSITION":0,
						"NORMAL":1,
						"TEXCOORD_0":2
					},
					"indices":3,
					"material":0
				},
				{
					"attributes":{
						"POSITION":4,
						"NORMAL":5,
						"TEXCOORD_0":6
					},
					"indices":7,
					"material":1
				},
				{
					"attributes":{
						"POSITION":8,
						"NORMAL":9,
						"TEXCOORD_0":10
					},
					"indices":11,
					"material":2
				},
				{
					"attributes":{
						"POSITION":12,
						"NORMAL":13,
						"TEXCOORD_0":14
					},
					"indices":15,
					"material":3
				},
				{
					"attributes":{
						"POSITION":16,
						"NORMAL":17,
						"TEXCOORD_0":18
					},
					"indices":19,
					"material":4
				},
				{
					"attributes":{
						"POSITION":20,
						"NORMAL":21,
						"TEXCOORD_0":22
					},
					"indices":23,
					"material":5
				},
				{
					"attributes":{
						"POSITION":24,
						"NORMAL":25,
						"TEXCOORD_0":26
					},
					"indices":27,
					"material":6
				},
				{
					"attributes":{
						"POSITION":28,
						"NORMAL":29,
						"TEXCOORD_0":30
					},
					"indices":31,
					"material":7
				}
			]
		}
	],
	"textures":[
		{
			"sampler":0,
			"source":0
		},
		{
			"sampler":0,
			"source":1
		},
		{
			"sampler":0,
			"source":2
		},
		{
			"sampler":0,
			"source":3
		},
		{
			"sampler":0,
			"source":4
		},
		{
			"sampler":0,
			"source":5
		},
		{
			"sampler":0,
			"source":6
		},
		{
			"sampler":0,
			"source":7
		},
		{
			"sampler":0,
			"source":8
		},
		{
			"sampler":0,
			"source":9
		},
		{
			"sampler":0,
			"source":10
		},
		{
			"sampler":0,
			"source":11
		},
		{
			"sampler":0,
			"source":12
		},
		{
			"sampler":0,
			"source":13
		},
		{
			"sampler":0,
			"source":14
		},
		{
			"sampler":0,
			"source":15
		}
	],
	"images":[
		{
			"mimeType":"image/png",
			"name":"stone_blocks_normal.png",
			"uri":"../textures/stone_blocks_normal.png"
		},
		{
			"mimeType":"image/png",
			"name":"stone_blocks_albedo.png",
			"uri":"../textures/stone_blocks_albedo.png"
		},
		{
			"mimeType":"image/png",
			"name":"wood_dark_normal.png",
			"uri":"../textures/wood_dark_normal.png"
		},
		{
			"mimeType":"image/png",
			"name":"wood_dark_albedo.png",
			"uri":"../textures/wood_dark_albedo.png"
		},
		{
			"mimeType":"image/png",
			"name":"wood_normal.png",
			"uri":"../textures/wood_normal.png"
		},
		{
			"mimeType":"image/png",
			"name":"wood_albedo.png",
			"uri":"../textures/wood_albedo.png"
		},
		{
			"mimeType":"image/png",
			"name":"red_lacquer_normal.png",
			"uri":"../textures/red_lacquer_normal.png"
		},
		{
			"mimeType":"image/png",
			"name":"red_lacquer_albedo.png",
			"uri":"../textures/red_lacquer_albedo.png"
		},
		{
			"mimeType":"image/png",
			"name":"shoji_normal.png",
			"uri":"../textures/shoji_normal.png"
		},
		{
			"mimeType":"image/png",
			"name":"shoji_albedo.png",
			"uri":"../textures/shoji_albedo.png"
		},
		{
			"mimeType":"image/png",
			"name":"roof_tiles_normal.png",
			"uri":"../textures/roof_tiles_normal.png"
		},
		{
			"mimeType":"image/png",
			"name":"roof_tiles_albedo.png",
			"uri":"../textures/roof_tiles_albedo.png"
		},
		{
			"mimeType":"image/png",
			"name":"straw_normal.png",
			"uri":"../textures/straw_normal.png"
		},
		{
			"mimeType":"image/png",
			"name":"straw_albedo.png",
			"uri":"../textures/straw_albedo.png"
		},
		{
			"mimeType":"image/png",
			"name":"plaster_normal.png",
			"uri":"../textures/plaster_normal.png"
		},
		{
			"mimeType":"image/png",
			"name":"plaster_albedo.png",
			"uri":"../textures/plaster_albedo.png"
		}
	],
	"accessors":[
		{
			"bufferView":0,
			"componentType":5126,
			"count":96,
			"max":[
				3.0999999046325684,
				0.4000000059604645,
				2.5999999046325684
			],
			"min":[
				-3.0999999046325684,
				0,
				-2.5999999046325684
			],
			"type":"VEC3"
		},
		{
			"bufferView":1,
			"componentType":5126,
			"count":96,
			"type":"VEC3"
		},
		{
			"bufferView":2,
			"componentType":5126,
			"count":96,
			"type":"VEC2"
		},
		{
			"bufferView":3,
			"componentType":5123,
			"count":324,
			"type":"SCALAR"
		},
		{
			"bufferView":4,
			"componentType":5126,
			"count":960,
			"max":[
				3.629999876022339,
				6.892571449279785,
				4.025000095367432
			],
			"min":[
				-3.629999876022339,
				0.3999999761581421,
				-2.4000000953674316
			],
			"type":"VEC3"
		},
		{
			"bufferView":5,
			"componentType":5126,
			"count":960,
			"type":"VEC3"
		},
		{
			"bufferView":6,
			"componentType":5126,
			"count":960,
			"type":"VEC2"
		},
		{
			"bufferView":7,
			"componentType":5123,
			"count":2880,
			"type":"SCALAR"
		},
		{
			"bufferView":8,
			"componentType":5126,
			"count":462,
			"max":[
				2.5,
				4.900000095367432,
				4.050000190734863
			],
			"min":[
				-2.5,
				0,
				-2
			],
			"type":"VEC3"
		},
		{
			"bufferView":9,
			"componentType":5126,
			"count":462,
			"type":"VEC3"
		},
		{
			"bufferView":10,
			"componentType":5126,
			"count":462,
			"type":"VEC2"
		},
		{
			"bufferView":11,
			"componentType":5123,
			"count":1410,
			"type":"SCALAR"
		},
		{
			"bufferView":12,
			"componentType":5126,
			"count":912,
			"max":[
				2.700000047683716,
				3.5999999046325684,
				2.1600000858306885
			],
			"min":[
				-2.700000047683716,
				0.9299999475479126,
				-2.1600000858306885
			],
			"type":"VEC3"
		},
		{
			"bufferView":13,
			"componentType":5126,
			"count":912,
			"type":"VEC3"
		},
		{
			"bufferView":14,
			"componentType":5126,
			"count":912,
			"type":"VEC2"
		},
		{
			"bufferView":15,
			"componentType":5123,
			"count":2736,
			"type":"SCALAR"
		},
		{
			"bufferView":16,
			"componentType":5126,
			"count":24,
			"max":[
				2.299999952316284,
				3.0999999046325684,
				1.9800000190734863
			],
			"min":[
				-2.299999952316284,
				1.0999999046325684,
				1.9200000762939453
			],
			"type":"VEC3"
		},
		{
			"bufferView":17,
			"componentType":5126,
			"count":24,
			"type":"VEC3"
		},
		{
			"bufferView":18,
			"componentType":5126,
			"count":24,
			"type":"VEC2"
		},
		{
			"bufferView":19,
			"componentType":5123,
			"count":36,
			"type":"SCALAR"
		},
		{
			"bufferView":20,
			"componentType":5126,
			"count":962,
			"max":[
				3.5,
				6.190780162811279,
				3.5
			],
			"min":[
				-3.5,
				3.4800000190734863,
				-3.5
			],
			"type":"VEC3"
		},
		{
			"bufferView":21,
			"componentType":5126,
			"count":962,
			"type":"VEC3"
		},
		{
			"bufferView":22,
			"componentType":5126,
			"count":962,
			"type":"VEC2"
		},
		{
			"bufferView":23,
			"componentType":5123,
			"count":4404,
			"type":"SCALAR"
		},
		{
			"bufferView":24,
			"componentType":5126,
			"count":275,
			"max":[
				2.6117613315582275,
				3.2955844402313232,
				2.3399999141693115
			],
			"min":[
				-2.6117613315582275,
				2.8144049644470215,
				2.1600000858306885
			],
			"type":"VEC3"
		},
		{
			"bufferView":25,
			"componentType":5126,
			"count":275,
			"type":"VEC3"
		},
		{
			"bufferView":26,
			"componentType":5126,
			"count":275,
			"type":"VEC2"
		},
		{
			"bufferView":27,
			"componentType":5123,
			"count":1440,
			"type":"SCALAR"
		},
		{
			"bufferView":28,
			"componentType":5126,
			"count":30,
			"max":[
				1.4199999570846558,
				2.9075000286102295,
				2.2860000133514404
			],
			"min":[
				-1.4199999570846558,
				2.370000123977661,
				2.2699999809265137
			],
			"type":"VEC3"
		},
		{
			"bufferView":29,
			"componentType":5126,
			"count":30,
			"type":"VEC3"
		},
		{
			"bufferView":30,
			"componentType":5126,
			"count":30,
			"type":"VEC2"
		},
		{
			"bufferView":31,
			"componentType":5123,
			"count":72,
			"type":"SCALAR"
		}
	],
	"bufferViews":[
		{
			"buffer":0,
			"byteLength":1152,
			"byteOffset":0,
			"target":34962
		},
		{
			"buffer":0,
			"byteLength":1152,
			"byteOffset":1152,
			"target":34962
		},
		{
			"buffer":0,
			"byteLength":768,
			"byteOffset":2304,
			"target":34962
		},
		{
			"buffer":0,
			"byteLength":648,
			"byteOffset":3072,
			"target":34963
		},
		{
			"buffer":0,
			"byteLength":11520,
			"byteOffset":3720,
			"target":34962
		},
		{
			"buffer":0,
			"byteLength":11520,
			"byteOffset":15240,
			"target":34962
		},
		{
			"buffer":0,
			"byteLength":7680,
			"byteOffset":26760,
			"target":34962
		},
		{
			"buffer":0,
			"byteLength":5760,
			"byteOffset":34440,
			"target":34963
		},
		{
			"buffer":0,
			"byteLength":5544,
			"byteOffset":40200,
			"target":34962
		},
		{
			"buffer":0,
			"byteLength":5544,
			"byteOffset":45744,
			"target":34962
		},
		{
			"buffer":0,
			"byteLength":3696,
			"byteOffset":51288,
			"target":34962
		},
		{
			"buffer":0,
			"byteLength":2820,
			"byteOffset":54984,
			"target":34963
		},
		{
			"buffer":0,
			"byteLength":10944,
			"byteOffset":57804,
			"target":34962
		},
		{
			"buffer":0,
			"byteLength":10944,
			"byteOffset":68748,
			"target":34962
		},
		{
			"buffer":0,
			"byteLength":7296,
			"byteOffset":79692,
			"target":34962
		},
		{
			"buffer":0,
			"byteLength":5472,
			"byteOffset":86988,
			"target":34963
		},
		{
			"buffer":0,
			"byteLength":288,
			"byteOffset":92460,
			"target":34962
		},
		{
			"buffer":0,
			"byteLength":288,
			"byteOffset":92748,
			"target":34962
		},
		{
			"buffer":0,
			"byteLength":192,
			"byteOffset":93036,
			"target":34962
		},
		{
			"buffer":0,
			"byteLength":72,
			"byteOffset":93228,
			"target":34963
		},
		{
			"buffer":0,
			"byteLength":11544,
			"byteOffset":93300,
			"target":34962
		},
		{
			"buffer":0,
			"byteLength":11544,
			"byteOffset":104844,
			"target":34962
		},
		{
			"buffer":0,
			"byteLength":7696,
			"byteOffset":116388,
			"target":34962
		},
		{
			"buffer":0,
			"byteLength":8808,
			"byteOffset":124084,
			"target":34963
		},
		{
			"buffer":0,
			"byteLength":3300,
			"byteOffset":132892,
			"target":34962
		},
		{
			"buffer":0,
			"byteLength":3300,
			"byteOffset":136192,
			"target":34962
		},
		{
			"buffer":0,
			"byteLength":2200,
			"byteOffset":139492,
			"target":34962
		},
		{
			"buffer":0,
			"byteLength":2880,
			"byteOffset":141692,
			"target":34963
		},
		{
			"buffer":0,
			"byteLength":360,
			"byteOffset":144572,
			"target":34962
		},
		{
			"buffer":0,
			"byteLength":360,
			"byteOffset":144932,
			"target":34962
		},
		{
			"buffer":0,
			"byteLength":240,
			"byteOffset":145292,
			"target":34962
		},
		{
			"buffer":0,
			"byteLength":144,
			"byteOffset":145532,
			"target":34963
		}
	],
	"samplers":[
		{
			"magFilter":9729,
			"minFilter":9987
		}
	],
	"buffers":[
		{
			"byteLength":145676,
			"uri":"shrine.bin"
		}
	]
}
