{
	"asset":{
		"generator":"Khronos glTF Blender I/O v4.5.51",
		"version":"2.0"
	},
	"scene":0,
	"scenes":[
		{
			"name":"Scene",
			"nodes":[
				1
			]
		}
	],
	"nodes":[
		{
			"mesh":0,
			"name":"SnowPineMesh"
		},
		{
			"children":[
				0
			],
			"name":"SnowPine"
		}
	],
	"materials":[
		{
			"doubleSided":true,
			"name":"bark",
			"normalTexture":{
				"index":0
			},
			"pbrMetallicRoughness":{
				"baseColorTexture":{
					"index":1
				},
				"metallicFactor":0,
				"roughnessFactor":0.949999988079071
			}
		},
		{
			"doubleSided":true,
			"name":"snow",
			"normalTexture":{
				"index":2
			},
			"pbrMetallicRoughness":{
				"baseColorTexture":{
					"index":3
				},
				"metallicFactor":0,
				"roughnessFactor":0.800000011920929
			}
		},
		{
			"doubleSided":true,
			"name":"pine_needles",
			"normalTexture":{
				"index":4
			},
			"pbrMetallicRoughness":{
				"baseColorTexture":{
					"index":5
				},
				"metallicFactor":0,
				"roughnessFactor":0.8999999761581421
			}
		}
	],
	"meshes":[
		{
			"name":"SnowPineMesh",
			"primitives":[
				{
					"attributes":{
						"POSITION":0,
						"NORMAL":1,
						"TEXCOORD_0":2
					},
					"indices":3,
					"material":0
				},
				{
					"attributes":{
						"POSITION":4,
						"NORMAL":5,
						"TEXCOORD_0":6
					},
					"indices":7,
					"material":1
				},
				{
					"attributes":{
						"POSITION":8,
						"NORMAL":9,
						"TEXCOORD_0":10
					},
					"indices":11,
					"material":2
				}
			]
		}
	],
	"textures":[
		{
			"sampler":0,
			"source":0
		},
		{
			"sampler":0,
			"source":1
		},
		{
			"sampler":0,
			"source":2
		},
		{
			"sampler":0,
			"source":3
		},
		{
			"sampler":0,
			"source":4
		},
		{
			"sampler":0,
			"source":5
		}
	],
	"images":[
		{
			"mimeType":"image/png",
			"name":"bark_normal.png",
			"uri":"../textures/bark_normal.png"
		},
		{
			"mimeType":"image/png",
			"name":"bark_albedo.png",
			"uri":"../textures/bark_albedo.png"
		},
		{
			"mimeType":"image/png",
			"name":"snow_normal.png",
			"uri":"../textures/snow_normal.png"
		},
		{
			"mimeType":"image/png",
			"name":"snow_albedo.png",
			"uri":"../textures/snow_albedo.png"
		},
		{
			"mimeType":"image/png",
			"name":"pine_needles_normal.png",
			"uri":"../textures/pine_needles_normal.png"
		},
		{
			"mimeType":"image/png",
			"name":"pine_needles_albedo.png",
			"uri":"../textures/pine_needles_albedo.png"
		}
	],
	"accessors":[
		{
			"bufferView":0,
			"componentType":5126,
			"count":230,
			"max":[
				0.44908034801483154,
				3.200000047683716,
				0.4345472455024719
			],
			"min":[
				-0.43314889073371887,
				-0.1228623166680336,
				-0.4603777229785919
			],
			"type":"VEC3"
		},
		{
			"bufferView":1,
			"componentType":5126,
			"count":230,
			"type":"VEC3"
		},
		{
			"bufferView":2,
			"componentType":5126,
			"count":230,
			"type":"VEC2"
		},
		{
			"bufferView":3,
			"componentType":5123,
			"count":432,
			"type":"SCALAR"
		},
		{
			"bufferView":4,
			"componentType":5126,
			"count":405,
			"max":[
				1.985296368598938,
				5.650000095367432,
				1.968871831893921
			],
			"min":[
				-1.8982168436050415,
				0.7505882382392883,
				-2.0040740966796875
			],
			"type":"VEC3"
		},
		{
			"bufferView":5,
			"componentType":5126,
			"count":405,
			"type":"VEC3"
		},
		{
			"bufferView":6,
			"componentType":5126,
			"count":405,
			"type":"VEC2"
		},
		{
			"bufferView":7,
			"componentType":5123,
			"count":705,
			"type":"SCALAR"
		},
		{
			"bufferView":8,
			"componentType":5126,
			"count":617,
			"max":[
				1.985296368598938,
				4.8507561683654785,
				1.968871831893921
			],
			"min":[
				-1.8982168436050415,
				0.7505882382392883,
				-2.0040740966796875
			],
			"type":"VEC3"
		},
		{
			"bufferView":9,
			"componentType":5126,
			"count":617,
			"type":"VEC3"
		},
		{
			"bufferView":10,
			"componentType":5126,
			"count":617,
			"type":"VEC2"
		},
		{
			"bufferView":11,
			"componentType":5123,
			"count":1185,
			"type":"SCALAR"
		}
	],
	"bufferViews":[
		{
			"buffer":0,
			"byteLength":2760,
			"byteOffset":0,
			"target":34962
		},
		{
			"buffer":0,
			"byteLength":2760,
			"byteOffset":2760,
			"target":34962
		},
		{
			"buffer":0,
			"byteLength":1840,
			"byteOffset":5520,
			"target":34962
		},
		{
			"buffer":0,
			"byteLength":864,
			"byteOffset":7360,
			"target":34963
		},
		{
			"buffer":0,
			"byteLength":4860,
			"byteOffset":8224,
			"target":34962
		},
		{
			"buffer":0,
			"byteLength":4860,
			"byteOffset":13084,
			"target":34962
		},
		{
			"buffer":0,
			"byteLength":3240,
			"byteOffset":17944,
			"target":34962
		},
		{
			"buffer":0,
			"byteLength":1410,
			"byteOffset":21184,
			"target":34963
		},
		{
			"buffer":0,
			"byteLength":7404,
			"byteOffset":22596,
			"target":34962
		},
		{
			"buffer":0,
			"byteLength":7404,
			"byteOffset":30000,
			"target":34962
		},
		{
			"buffer":0,
			"byteLength":4936,
			"byteOffset":37404,
			"target":34962
		},
		{
			"buffer":0,
			"byteLength":2370,
			"byteOffset":42340,
			"target":34963
		}
	],
	"samplers":[
		{
			"magFilter":9729,
			"minFilter":9987
		}
	],
	"buffers":[
		{
			"byteLength":44712,
			"uri":"snow_pine.bin"
		}
	]
}
