{
	"asset":{
		"generator":"Khronos glTF Blender I/O v4.5.51",
		"version":"2.0"
	},
	"scene":0,
	"scenes":[
		{
			"name":"Scene",
			"nodes":[
				1
			]
		}
	],
	"nodes":[
		{
			"mesh":0,
			"name":"TrainingDummyMesh"
		},
		{
			"children":[
				0
			],
			"name":"TrainingDummy"
		}
	],
	"materials":[
		{
			"doubleSided":true,
			"name":"wood_dark",
			"normalTexture":{
				"index":0
			},
			"pbrMetallicRoughness":{
				"baseColorTexture":{
					"index":1
				},
				"metallicFactor":0,
				"roughnessFactor":0.800000011920929
			}
		},
		{
			"doubleSided":true,
			"name":"wood",
			"normalTexture":{
				"index":2
			},
			"pbrMetallicRoughness":{
				"baseColorTexture":{
					"index":3
				},
				"metallicFactor":0,
				"roughnessFactor":0.8500000238418579
			}
		},
		{
			"doubleSided":true,
			"name":"straw",
			"normalTexture":{
				"index":4
			},
			"pbrMetallicRoughness":{
				"baseColorTexture":{
					"index":5
				},
				"metallicFactor":0,
				"roughnessFactor":0.949999988079071
			}
		}
	],
	"meshes":[
		{
			"name":"TrainingDummyMesh",
			"primitives":[
				{
					"attributes":{
						"POSITION":0,
						"NORMAL":1,
						"TEXCOORD_0":2
					},
					"indices":3,
					"material":0
				},
				{
					"attributes":{
						"POSITION":4,
						"NORMAL":5,
						"TEXCOORD_0":6
					},
					"indices":7,
					"material":1
				},
				{
					"attributes":{
						"POSITION":8,
						"NORMAL":9,
						"TEXCOORD_0":10
					},
					"indices":11,
					"material":2
				}
			]
		}
	],
	"textures":[
		{
			"sampler":0,
			"source":0
		},
		{
			"sampler":0,
			"source":1
		},
		{
			"sampler":0,
			"source":2
		},
		{
			"sampler":0,
			"source":3
		},
		{
			"sampler":0,
			"source":4
		},
		{
			"sampler":0,
			"source":5
		}
	],
	"images":[
		{
			"mimeType":"image/png",
			"name":"wood_dark_normal.png",
			"uri":"../textures/wood_dark_normal.png"
		},
		{
			"mimeType":"image/png",
			"name":"wood_dark_albedo.png",
			"uri":"../textures/wood_dark_albedo.png"
		},
		{
			"mimeType":"image/png",
			"name":"wood_normal.png",
			"uri":"../textures/wood_normal.png"
		},
		{
			"mimeType":"image/png",
			"name":"wood_albedo.png",
			"uri":"../textures/wood_albedo.png"
		},
		{
			"mimeType":"image/png",
			"name":"straw_normal.png",
			"uri":"../textures/straw_normal.png"
		},
		{
			"mimeType":"image/png",
			"name":"straw_albedo.png",
			"uri":"../textures/straw_albedo.png"
		}
	],
	"accessors":[
		{
			"bufferView":0,
			"componentType":5126,
			"count":336,
			"max":[
				0.4749999940395355,
				1.4820001125335693,
				0.5600000023841858
			],
			"min":[
				-0.4749999940395355,
				0,
				-0.4749999940395355
			],
			"type":"VEC3"
		},
		{
			"bufferView":1,
			"componentType":5126,
			"count":336,
			"type":"VEC3"
		},
		{
			"bufferView":2,
			"componentType":5126,
			"count":336,
			"type":"VEC2"
		},
		{
			"bufferView":3,
			"componentType":5123,
			"count":900,
			"type":"SCALAR"
		},
		{
			"bufferView":4,
			"componentType":5126,
			"count":66,
			"max":[
				0.1899999976158142,
				1.8250000476837158,
				0.1899999976158142
			],
			"min":[
				-0.1899999976158142,
				0.07499998807907104,
				-0.1899999976158142
			],
			"type":"VEC3"
		},
		{
			"bufferView":5,
			"componentType":5126,
			"count":66,
			"type":"VEC3"
		},
		{
			"bufferView":6,
			"componentType":5126,
			"count":66,
			"type":"VEC2"
		},
		{
			"bufferView":7,
			"componentType":5123,
			"count":180,
			"type":"SCALAR"
		},
		{
			"bufferView":8,
			"componentType":5126,
			"count":3145,
			"max":[
				0.2901434600353241,
				2.288226842880249,
				0.2866654396057129
			],
			"min":[
				-0.28768211603164673,
				0.5009759068489075,
				-0.286996066570282
			],
			"type":"VEC3"
		},
		{
			"bufferView":9,
			"componentType":5126,
			"count":3145,
			"type":"VEC3"
		},
		{
			"bufferView":10,
			"componentType":5126,
			"count":3145,
			"type":"VEC2"
		},
		{
			"bufferView":11,
			"componentType":5123,
			"count":9600,
			"type":"SCALAR"
		}
	],
	"bufferViews":[
		{
			"buffer":0,
			"byteLength":4032,
			"byteOffset":0,
			"target":34962
		},
		{
			"buffer":0,
			"byteLength":4032,
			"byteOffset":4032,
			"target":34962
		},
		{
			"buffer":0,
			"byteLength":2688,
			"byteOffset":8064,
			"target":34962
		},
		{
			"buffer":0,
			"byteLength":1800,
			"byteOffset":10752,
			"target":34963
		},
		{
			"buffer":0,
			"byteLength":792,
			"byteOffset":12552,
			"target":34962
		},
		{
			"buffer":0,
			"byteLength":792,
			"byteOffset":13344,
			"target":34962
		},
		{
			"buffer":0,
			"byteLength":528,
			"byteOffset":14136,
			"target":34962
		},
		{
			"buffer":0,
			"byteLength":360,
			"byteOffset":14664,
			"target":34963
		},
		{
			"buffer":0,
			"byteLength":37740,
			"byteOffset":15024,
			"target":34962
		},
		{
			"buffer":0,
			"byteLength":37740,
			"byteOffset":52764,
			"target":34962
		},
		{
			"buffer":0,
			"byteLength":25160,
			"byteOffset":90504,
			"target":34962
		},
		{
			"buffer":0,
			"byteLength":19200,
			"byteOffset":115664,
			"target":34963
		}
	],
	"samplers":[
		{
			"magFilter":9729,
			"minFilter":9987
		}
	],
	"buffers":[
		{
			"byteLength":134864,
			"uri":"training_dummy.bin"
		}
	]
}
